<?xml version="1.0" encoding="utf-8"?>
<!-- Generator: Adobe Illustrator 16.0.0, SVG Export Plug-In . SVG Version: 6.00 Build 0)  -->
<!DOCTYPE svg PUBLIC "-//W3C//DTD SVG 1.1//EN" "http://www.w3.org/Graphics/SVG/1.1/DTD/svg11.dtd">
<svg version="1.1"
	 id="svg2" xmlns:dc="http://purl.org/dc/elements/1.1/" xmlns:cc="http://creativecommons.org/ns#" xmlns:rdf="http://www.w3.org/1999/02/22-rdf-syntax-ns#" xmlns:svg="http://www.w3.org/2000/svg"
	 xmlns="http://www.w3.org/2000/svg" xmlns:xlink="http://www.w3.org/1999/xlink" x="0px" y="0px" width="652.314px"
	 height="258.158px" viewBox="0 0 652.314 258.158" enable-background="new 0 0 652.314 258.158" xml:space="preserve">
<path id="path9" fill="#F5F6F7" d="M45.206,24.613h565.759c10.088,0,17.85,8.092,17.85,19.777v172.593
	c0,10.783-7.761,20.675-17.85,20.675H45.206c-10.865,0-19.403-9.89-19.403-20.675V44.39C25.803,32.705,34.34,24.613,45.206,24.613z"
	/>
<path id="path11" fill="#97C5D5" d="M51.941,86.62h19.975c0.999,0,2.997,0.999,2.997,2.996v16.979c0,1.998-1.998,2.997-2.997,2.997
	H51.941c-1.998,0-2.997-0.999-2.997-2.997V89.616C48.945,87.619,49.944,86.62,51.941,86.62z"/>
<path id="path13" fill="#97C5D5" d="M81.904,86.62h19.975c1.998,0,2.996,0.999,2.996,2.996v16.979c0,1.998-0.999,2.997-2.996,2.997
	H81.904c-1.998,0-2.996-0.999-2.996-2.997V89.616C78.908,87.619,79.906,86.62,81.904,86.62z"/>
<path id="path15" fill="#97C5D5" d="M110.868,86.62h19.975c1.998,0,2.997,0.999,2.997,2.996v16.979c0,1.998-0.999,2.997-2.997,2.997
	h-19.975c-0.999,0-1.998-0.999-1.998-2.997V89.616C108.87,87.619,109.869,86.62,110.868,86.62z"/>
<path id="path17" fill="#97C5D5" d="M140.83,86.62h19.975c1.998,0,2.996,0.999,2.996,2.996v16.979c0,1.998-0.999,2.997-2.996,2.997
	H140.83c-1.998,0-2.996-0.999-2.996-2.997V89.616C137.834,87.619,138.833,86.62,140.83,86.62z"/>
<path id="path19" fill="#97C5D5" d="M170.792,86.62h19.975c1.998,0,2.996,0.999,2.996,2.996v16.979c0,1.998-0.999,2.997-2.996,2.997
	h-19.975c-0.999,0-2.996-0.999-2.996-2.997V89.616C167.796,87.619,169.794,86.62,170.792,86.62z"/>
<path id="path21" fill="#97C5D5" d="M200.755,86.62h18.977c1.997,0,2.996,0.999,2.996,2.996v16.979c0,1.998-0.999,2.997-2.996,2.997
	h-18.977c-0.999,0-2.996-0.999-2.996-2.997V89.616C197.759,87.619,199.756,86.62,200.755,86.62z"/>
<path id="path23" fill="#97C5D5" d="M229.719,86.62h19.975c1.998,0,2.996,0.999,2.996,2.996v16.979c0,1.998-0.999,2.997-2.996,2.997
	h-19.975c-0.999,0-2.996-0.999-2.996-2.997V89.616C226.723,87.619,228.72,86.62,229.719,86.62z"/>
<path id="path25" fill="#97C5D5" d="M259.681,86.62h19.975c1.998,0,2.996,0.999,2.996,2.996v16.979c0,1.998-0.999,2.997-2.996,2.997
	h-19.975c-0.999,0-2.996-0.999-2.996-2.997V89.616C256.685,87.619,258.683,86.62,259.681,86.62z"/>
<path id="path27" fill="#97C5D5" d="M289.644,86.62h18.977c1.998,0,2.996,0.999,2.996,2.996v16.979c0,1.998-0.999,2.997-2.996,2.997
	h-18.977c-0.999,0-2.996-0.999-2.996-2.997V89.616C286.647,87.619,288.645,86.62,289.644,86.62z"/>
<path id="path29" fill="#97C5D5" d="M318.607,86.62h19.975c1.998,0,2.997,0.999,2.997,2.996v16.979c0,1.998-0.999,2.997-2.997,2.997
	h-19.975c-0.999,0-2.996-0.999-2.996-2.997V89.616C315.611,87.619,317.608,86.62,318.607,86.62z"/>
<path id="path31" fill="#97C5D5" d="M348.57,86.62h19.975c1.998,0,2.996,0.999,2.996,2.996v16.979c0,1.998-0.998,2.997-2.996,2.997
	H348.57c-0.999,0-2.996-0.999-2.996-2.997V89.616C345.574,87.619,347.571,86.62,348.57,86.62z"/>
<path id="path33" fill="#97C5D5" d="M378.532,86.62h19.976c0.998,0,1.997,0.999,1.997,2.996v16.979c0,1.998-0.999,2.997-1.997,2.997
	h-19.976c-0.998,0-2.996-0.999-2.996-2.997V89.616C375.536,87.619,377.534,86.62,378.532,86.62z"/>
<path id="path35" fill="#97C5D5" d="M407.496,86.62h19.976c1.997,0,2.996,0.999,2.996,2.996v16.979c0,1.998-0.999,2.997-2.996,2.997
	h-19.976c-0.999,0-1.997-0.999-1.997-2.997V89.616C405.499,87.619,406.497,86.62,407.496,86.62z"/>
<path id="path41" fill="#C9F7D1" d="M99.881,111.589h18.976c1.998,0,2.996,0.999,2.996,2.996v17.979
	c0,0.998-0.999,2.996-2.996,2.996H99.881c-0.999,0-2.997-1.998-2.997-2.996v-17.979C96.885,112.587,98.882,111.589,99.881,111.589z"
	/>
<path id="path43" fill="#97C5D5" d="M128.845,111.589h19.975c1.998,0,2.997,0.999,2.997,2.996v17.979
	c0,0.998-0.999,2.996-2.997,2.996h-19.975c-0.999,0-2.997-1.998-2.997-2.996v-17.979
	C125.849,112.587,127.846,111.589,128.845,111.589z"/>
<path id="path45" fill="#97C5D5" d="M158.808,111.589h19.975c1.997,0,2.996,0.999,2.996,2.996v17.979
	c0,0.998-0.999,2.996-2.996,2.996h-19.975c-0.999,0-2.997-1.998-2.997-2.996v-17.979
	C155.811,112.587,157.809,111.589,158.808,111.589z"/>
<path id="path47" fill="#E8A8A5" d="M188.77,111.589h18.976c1.998,0,2.997,0.999,2.997,2.996v17.979
	c0,0.998-0.999,2.996-2.997,2.996H188.77c-0.999,0-2.996-1.998-2.996-2.996v-17.979C185.774,112.587,187.771,111.589,188.77,111.589
	z"/>
<path id="path49" fill="#F7D7D7" d="M217.734,111.589h19.975c1.997,0,2.996,0.999,2.996,2.996v17.979
	c0,0.998-0.999,2.996-2.996,2.996h-19.975c-0.999,0-1.998-1.998-1.998-2.996v-17.979
	C215.736,112.587,216.735,111.589,217.734,111.589z"/>
<path id="path51" fill="#97C5D5" d="M247.696,111.589h19.975c1.998,0,2.996,0.999,2.996,2.996v17.979
	c0,0.998-0.999,2.996-2.996,2.996h-19.975c-0.999,0-1.998-1.998-1.998-2.996v-17.979
	C245.699,112.587,246.697,111.589,247.696,111.589z"/>
<path id="path53" fill="#EDC07D" d="M277.659,111.589h19.975c1.998,0,2.996,0.999,2.996,2.996v17.979
	c0,0.998-0.999,2.996-2.996,2.996h-19.975c-0.999,0-1.998-1.998-1.998-2.996v-17.979
	C275.661,112.587,276.66,111.589,277.659,111.589z"/>
<path id="path55" fill="#A8D1B1" d="M306.623,111.589h19.976c1.996,0,2.995,0.999,2.995,2.996v17.979
	c0,0.998-0.999,2.996-2.995,2.996h-19.976c-0.999,0-1.998-1.998-1.998-2.996v-17.979
	C304.625,112.587,305.624,111.589,306.623,111.589z"/>
<path id="path57" fill="#EDC07D" d="M335.723,110.295h19.976c1.998,0,2.997,0.999,2.997,2.996v17.978c0,1-0.999,2.996-2.997,2.996
	h-19.976c-0.999,0-1.997-1.998-1.997-2.996v-17.978C333.726,111.293,334.724,110.295,335.723,110.295z"/>
<path id="path59" fill="#97C5D5" d="M366.548,111.589h19.977c1.995,0,2.994,0.999,2.994,2.996v17.979
	c0,0.998-0.999,2.996-2.994,2.996h-19.977c-0.999,0-1.998-1.998-1.998-2.996v-17.979
	C364.55,112.587,365.549,111.589,366.548,111.589z"/>
<path id="path61" fill="#97C5D5" d="M396.51,111.589h18.979c1.997,0,2.996,0.999,2.996,2.996v17.979
	c0,0.998-0.999,2.996-2.996,2.996H396.51c-0.998,0-1.997-1.998-1.997-2.996v-17.979C394.513,112.587,395.512,111.589,396.51,111.589
	z"/>
<path id="path63" fill="#97C5D5" d="M425.474,111.589h19.978c1.997,0,2.996,0.999,2.996,2.996v17.979
	c0,0.998-0.999,2.996-2.996,2.996h-19.978c-0.999,0-1.997-1.998-1.997-2.996v-17.979
	C423.477,112.587,424.475,111.589,425.474,111.589z"/>
<path id="path65" fill="#F1EFBE" d="M107.871,137.556h18.977c0.999,0,2.996,1,2.996,1.998v18.977c0,0.998-1.998,1.998-2.996,1.998
	h-18.977c-1.998,0-2.996-1-2.996-1.998v-18.977C104.875,138.556,105.874,137.556,107.871,137.556z"/>
<path id="path67" fill="#F1EFBE" d="M136.835,137.556h19.975c0.999,0,2.996,1,2.996,1.998v18.977c0,0.998-1.998,1.998-2.996,1.998
	h-19.975c-1.998,0-2.996-1-2.996-1.998v-18.977C133.839,138.556,134.837,137.556,136.835,137.556z"/>
<path id="path69" fill="#F1EFBE" d="M166.797,137.556h19.975c1.998,0,2.996,1,2.996,1.998v18.977c0,0.998-0.999,1.998-2.996,1.998
	h-19.975c-1.998,0-2.996-1-2.996-1.998v-18.977C163.801,138.556,164.8,137.556,166.797,137.556z"/>
<path id="path71" fill="#F1EFBE" d="M196.76,137.556h18.977c1.998,0,2.996,1,2.996,1.998v18.977c0,0.998-0.999,1.998-2.996,1.998
	H196.76c-1.997,0-2.996-1-2.996-1.998v-18.977C193.764,138.556,194.763,137.556,196.76,137.556z"/>
<path id="path73" fill="#97C5D5" d="M225.724,137.556h19.975c1.998,0,2.996,1,2.996,1.998v18.977c0,0.998-0.999,1.998-2.996,1.998
	h-19.975c-1.998,0-2.996-1-2.996-1.998v-18.977C222.728,138.556,223.726,137.556,225.724,137.556z"/>
<path id="path75" fill="#A97CA9" d="M255.686,137.556h19.975c1.998,0,2.997,1,2.997,1.998v18.977c0,0.998-0.999,1.998-2.997,1.998
	h-19.975c-0.999,0-2.996-1-2.996-1.998v-18.977C252.69,138.556,254.688,137.556,255.686,137.556z"/>
<path id="path77" fill="#A8D1B1" d="M285.649,137.556h18.976c1.998,0,2.996,1,2.996,1.998v18.977c0,0.998-0.999,1.998-2.996,1.998
	h-18.976c-0.999,0-2.997-1-2.997-1.998v-18.977C282.652,138.556,284.65,137.556,285.649,137.556z"/>
<path id="path79" fill="#A8D1B1" d="M314.612,137.556h19.976c1.997,0,2.996,1,2.996,1.998v18.977c0,0.998-0.999,1.998-2.996,1.998
	h-19.976c-0.999,0-2.996-1-2.996-1.998v-18.977C311.616,138.556,313.613,137.556,314.612,137.556z"/>
<path id="path81" fill="#A8D1B1" d="M344.575,137.556h19.975c1.998,0,2.996,1,2.996,1.998v18.977c0,0.998-0.998,1.998-2.996,1.998
	h-19.975c-0.999,0-2.996-1-2.996-1.998v-18.977C341.579,138.556,343.576,137.556,344.575,137.556z"/>
<path id="path83" fill="#A97CA9" d="M374.537,137.556h19.976c1.997,0,2.996,1,2.996,1.998v18.977c0,0.998-0.999,1.998-2.996,1.998
	h-19.976c-0.998,0-2.996-1-2.996-1.998v-18.977C371.541,138.556,373.539,137.556,374.537,137.556z"/>
<path id="path85" fill="#97C5D5" d="M403.501,137.556h19.976c1.997,0,2.996,1,2.996,1.998v18.977c0,0.998-0.999,1.998-2.996,1.998
	h-19.976c-0.998,0-2.996-1-2.996-1.998v-18.977C400.505,138.556,402.503,137.556,403.501,137.556z"/>
<path id="path87" fill="#97C5D5" d="M117.859,162.524h20.974c0.999,0,1.998,1.998,1.998,2.998V182.5
	c0,1.998-0.999,2.996-1.998,2.996h-20.974c-0.999,0-1.998-0.998-1.998-2.996v-16.979
	C115.861,164.522,116.86,162.524,117.859,162.524z"/>
<path id="path89" fill="#97C5D5" d="M147.821,162.524h20.974c0.999,0,1.998,1.998,1.998,2.998V182.5
	c0,1.998-0.999,2.996-1.998,2.996h-20.974c-0.999,0-1.998-0.998-1.998-2.996v-16.979
	C145.824,164.522,146.822,162.524,147.821,162.524z"/>
<path id="path91" fill="#97C5D5" d="M177.784,162.524h20.974c0.999,0,1.998,1.998,1.998,2.998V182.5
	c0,1.998-0.999,2.996-1.998,2.996h-20.974c-0.999,0-1.998-0.998-1.998-2.996v-16.979
	C175.786,164.522,176.785,162.524,177.784,162.524z"/>
<path id="path93" fill="#C0CEF2" d="M237.709,162.524h19.975c0.999,0,1.998,1.998,1.998,2.998V182.5
	c0,1.998-0.999,2.996-1.998,2.996h-19.975c-1.998,0-2.997-0.998-2.997-2.996v-16.979
	C234.712,164.522,235.711,162.524,237.709,162.524z"/>
<path id="path95" fill="#B4BEC1" d="M267.671,162.524h19.975c0.999,0,1.997,1.998,1.997,2.998V182.5
	c0,1.998-0.999,2.996-1.997,2.996h-19.975c-1.998,0-2.997-0.998-2.997-2.996v-16.979
	C264.675,164.522,265.674,162.524,267.671,162.524z"/>
<path id="path97" fill="#8A9193" d="M297.634,162.524h18.978c0.998,0,1.997,1.998,1.997,2.998V182.5
	c0,1.998-0.999,2.996-1.997,2.996h-18.978c-1.998,0-2.996-0.998-2.996-2.996v-16.979
	C294.638,164.522,295.636,162.524,297.634,162.524z"/>
<path id="path99" fill="#F1EFBE" d="M326.599,162.524h19.976c0.999,0,1.998,1.998,1.998,2.998V182.5
	c0,1.998-0.999,2.996-1.998,2.996h-19.976c-1.999,0-2.997-0.998-2.997-2.996v-16.979C323.602,164.522,324.6,162.524,326.599,162.524
	z"/>
<path id="path101" fill="#F1EFBE" d="M356.56,162.524h19.978c0.999,0,1.997,1.998,1.997,2.998V182.5
	c0,1.998-0.998,2.996-1.997,2.996H356.56c-1.997,0-2.994-0.998-2.994-2.996v-16.979C353.563,164.522,354.563,162.524,356.56,162.524
	z"/>
<path id="path103" fill="#97C5D5" d="M386.522,162.524h18.977c0.998,0,1.997,1.998,1.997,2.998V182.5
	c0,1.998-0.999,2.996-1.997,2.996h-18.977c-1.997,0-2.996-0.998-2.996-2.996v-16.979
	C383.526,164.522,384.525,162.524,386.522,162.524z"/>
<path id="path105" fill="#97C5D5" d="M51.941,45.671h19.975c0.999,0,2.997,0.999,2.997,2.996v17.978
	c0,0.999-1.998,2.996-2.997,2.996H51.941c-1.998,0-2.997-1.998-2.997-2.996V48.667C48.945,46.67,49.944,45.671,51.941,45.671z"/>
<path id="path107" fill="#97C5D5" d="M110.868,45.671h19.975c1.998,0,2.997,0.999,2.997,2.996v17.978
	c0,0.999-0.999,2.996-2.997,2.996h-19.975c-0.999,0-1.998-1.998-1.998-2.996V48.667C108.87,46.67,109.869,45.671,110.868,45.671z"/>
<path id="path109" fill="#97C5D5" d="M140.83,45.671h19.975c1.998,0,2.996,0.999,2.996,2.996v17.978
	c0,0.999-0.999,2.996-2.996,2.996H140.83c-1.998,0-2.996-1.998-2.996-2.996V48.667C137.834,46.67,138.833,45.671,140.83,45.671z"/>
<path id="path111" fill="#97C5D5" d="M170.792,45.671h19.975c1.998,0,2.996,0.999,2.996,2.996v17.978
	c0,0.999-0.999,2.996-2.996,2.996h-19.975c-0.999,0-2.996-1.998-2.996-2.996V48.667C167.796,46.67,169.794,45.671,170.792,45.671z"
	/>
<path id="path113" fill="#97C5D5" d="M200.755,45.671h18.977c1.997,0,2.996,0.999,2.996,2.996v17.978
	c0,0.999-0.999,2.996-2.996,2.996h-18.977c-0.999,0-2.996-1.998-2.996-2.996V48.667C197.759,46.67,199.756,45.671,200.755,45.671z"
	/>
<path id="path115" fill="#97C5D5" d="M244.7,44.672h19.975c0.999,0,1.998,1.998,1.998,2.997v17.978c0,1.997-0.999,2.996-1.998,2.996
	H244.7c-1.998,0-2.997-0.999-2.997-2.996V47.669C241.704,46.67,242.703,44.672,244.7,44.672z"/>
<path id="path117" fill="#97C5D5" d="M274.663,44.672h19.975c0.999,0,1.997,1.998,1.997,2.997v17.978
	c0,1.997-0.999,2.996-1.997,2.996h-19.975c-1.998,0-2.997-0.999-2.997-2.996V47.669C271.666,46.67,272.665,44.672,274.663,44.672z"
	/>
<path id="path119" fill="#97C5D5" d="M303.626,44.672h19.975c0.998,0,1.998,1.998,1.998,2.997v17.978c0,1.997-1,2.996-1.998,2.996
	h-19.975c-0.999,0-1.998-0.999-1.998-2.996V47.669C301.629,46.67,302.627,44.672,303.626,44.672z"/>
<path id="path121" fill="#97C5D5" d="M333.589,44.672h19.977c0.997,0,1.997,1.998,1.997,2.997v17.978
	c0,1.997-0.999,2.996-1.997,2.996h-19.977c-1.998,0-2.996-0.999-2.996-2.996V47.669C330.593,46.67,331.591,44.672,333.589,44.672z"
	/>
<path id="path123" fill="#97C5D5" d="M377.534,44.672h19.975c0.999,0,1.997,1.998,1.997,2.997v17.978
	c0,1.997-0.998,2.996-1.997,2.996h-19.975c-1.998,0-2.997-0.999-2.997-2.996V47.669C374.537,46.67,375.536,44.672,377.534,44.672z"
	/>
<path id="path125" fill="#97C5D5" d="M406.497,44.672h19.976c0.999,0,1.997,1.998,1.997,2.997v17.978
	c0,1.997-0.998,2.996-1.997,2.996h-19.976c-1.997,0-2.996-0.999-2.996-2.996V47.669C403.501,46.67,404.5,44.672,406.497,44.672z"/>
<path id="path127" fill="#97C5D5" d="M436.46,44.672h19.975c0.999,0,1.998,1.998,1.998,2.997v17.978
	c0,1.997-0.999,2.996-1.998,2.996H436.46c-1.997,0-2.996-0.999-2.996-2.996V47.669C433.464,46.67,434.463,44.672,436.46,44.672z"/>
<path id="path129" fill="#97C5D5" d="M466.423,44.672h19.977c0.999,0,1.995,1.998,1.995,2.997v17.978
	c0,1.997-0.996,2.996-1.995,2.996h-19.977c-1.998,0-2.997-0.999-2.997-2.996V47.669C463.426,46.67,464.425,44.672,466.423,44.672z"
	/>
<path id="path131" fill="#C0CEF2" d="M525.349,86.62h19.978c0.998,0,1.997,0.999,1.997,1.998v17.977
	c0,0.999-0.999,1.998-1.997,1.998h-19.978c-1.997,0-2.995-0.999-2.995-1.998V88.618C522.354,87.619,523.352,86.62,525.349,86.62z"/>
<path id="path133" fill="#A97CA9" d="M555.313,86.62h19.976c0.999,0,1.998,0.999,1.998,1.998v17.977
	c0,0.999-0.999,1.998-1.998,1.998h-19.976c-1.997,0-2.995-0.999-2.995-1.998V88.618C552.315,87.619,553.313,86.62,555.313,86.62z"/>
<path id="path135" fill="#EDC07D" d="M585.273,86.62h18.977c0.999,0,1.997,0.999,1.997,1.998v17.977
	c0,0.999-0.998,1.998-1.997,1.998h-18.977c-1.997,0-2.996-0.999-2.996-1.998V88.618C582.277,87.619,583.276,86.62,585.273,86.62z"/>
<path id="path137" fill="#97C5D5" d="M523.352,44.672h19.977c1.998,0,2.996,1.998,2.996,2.997v17.978
	c0,1.997-0.998,2.996-2.996,2.996h-19.977c-0.999,0-2.994-0.999-2.994-2.996V47.669C520.355,46.67,522.354,44.672,523.352,44.672z"
	/>
<path id="path139" fill="#97C5D5" d="M553.313,44.672h19.978c1.997,0,2.996,1.998,2.996,2.997v17.978
	c0,1.997-0.999,2.996-2.996,2.996h-19.978c-0.996,0-2.994-0.999-2.994-2.996V47.669C550.317,46.67,552.315,44.672,553.313,44.672z"
	/>
<path id="path141" fill="#97C5D5" d="M583.276,44.672h18.977c1.997,0,2.996,1.998,2.996,2.997v17.978
	c0,1.997-0.999,2.996-2.996,2.996h-18.977c-0.999,0-2.996-0.999-2.996-2.996V47.669C580.28,46.67,582.277,44.672,583.276,44.672z"/>
<path id="path143" fill="#8A9193" d="M525.349,110.59h19.978c0.998,0,1.997,1.998,1.997,2.997v17.977
	c0,1.998-0.999,2.998-1.997,2.998h-19.978c-1.997,0-2.995-1-2.995-2.998v-17.977C522.354,112.587,523.352,110.59,525.349,110.59z"/>
<path id="path145" fill="#A97CA9" d="M555.313,110.59h19.976c0.999,0,1.998,1.998,1.998,2.997v17.977
	c0,1.998-0.999,2.998-1.998,2.998h-19.976c-1.997,0-2.995-1-2.995-2.998v-17.977C552.315,112.587,553.313,110.59,555.313,110.59z"/>
<path id="path147" fill="#EDC07D" d="M585.273,110.59h18.977c0.999,0,1.997,1.998,1.997,2.997v17.977
	c0,1.998-0.998,2.998-1.997,2.998h-18.977c-1.997,0-2.996-1-2.996-2.998v-17.977C582.277,112.587,583.276,110.59,585.273,110.59z"/>
<path id="path149" fill="#A8D1B1" d="M525.349,187.494h19.978c0.998,0,1.997,0.998,1.997,1.997v18.976c0,1-0.999,1.998-1.997,1.998
	h-19.978c-1.997,0-2.995-0.998-2.995-1.998v-18.976C522.354,188.492,523.352,187.494,525.349,187.494z"/>
<path id="path151" fill="#A8D1B1" d="M555.313,187.494h19.976c0.999,0,1.998,0.998,1.998,1.997v18.976c0,1-0.999,1.998-1.998,1.998
	h-19.976c-1.997,0-2.995-0.998-2.995-1.998v-18.976C552.315,188.492,553.313,187.494,555.313,187.494z"/>
<path id="path153" fill="#A8D1B1" d="M585.273,187.494h18.977c0.999,0,1.997,0.998,1.997,1.997v18.976c0,1-0.998,1.998-1.997,1.998
	h-18.977c-1.997,0-2.996-0.998-2.996-1.998v-18.976C582.277,188.492,583.276,187.494,585.273,187.494z"/>
<path id="path155" fill="#A8D1B1" d="M555.313,162.524h19.976c0.999,0,1.998,1,1.998,2.998V182.5c0,0.998-0.999,2.996-1.998,2.996
	h-19.976c-1.997,0-2.995-1.998-2.995-2.996v-16.979C552.315,163.524,553.313,162.524,555.313,162.524z"/>
<path id="path185" fill="#789EA8" d="M166.797,187.494h-10.986c-1.997,0-2.996,0.998-2.996,2.996v17.977
	c0,1.998,0.999,2.997,2.996,2.997h10.986h167.791h17.979c0,0,0.998-0.999,0.998-2.997V190.49c0-1.998-0.998-2.996-0.998-2.996
	h-17.979H166.797z"/>
<path id="path187" fill="#97C5D5" d="M395.512,187.494h18.978c0.999,0,1.998,0.998,1.998,2.996v17.977
	c0,1.998-0.999,2.997-1.998,2.997h-18.978c-1.998,0-2.997-0.999-2.997-2.997V190.49
	C392.515,188.492,393.514,187.494,395.512,187.494z"/>
<path id="path189" fill="#97C5D5" d="M424.475,187.494h19.978c0.999,0,1.997,0.998,1.997,2.996v17.977
	c0,1.998-0.998,2.997-1.997,2.997h-19.978c-1.997,0-2.996-0.999-2.996-2.997V190.49
	C421.479,188.492,422.478,187.494,424.475,187.494z"/>
<path id="path195" fill="#F7D7D7" d="M206.748,162.524h20.974c0.999,0,1.998,1.998,1.998,2.998V182.5
	c0,1.998-0.999,2.996-1.998,2.996h-20.974c0,0-0.999-0.998-0.999-2.996v-16.979C205.749,164.522,206.748,162.524,206.748,162.524z"
	/>
<path id="path197" fill="#C9F7D1" d="M51.941,135.56c-1.998,0-2.997-1.998-2.997-2.996v-17.979c0-1.998,0.999-2.996,2.997-2.996
	h37.952c1.998,0,2.997,0.999,2.997,2.996v17.979c0,0.998-0.999,2.996-2.997,2.996H51.941L51.941,135.56z"/>
<path id="path199" fill="#B6F0FF" d="M51.941,160.526c-0.999,0-2.997-0.998-2.997-1.998v-18.976c0-0.999,1.998-1.997,2.997-1.997
	h44.943c1.998,0,3.995,0.998,3.995,1.997v18.976c0,1-1.998,1.998-3.995,1.998H51.941z"/>
<g id="g201" transform="matrix(0.774557,0,0,0.77345,-210.373,-10.3173)">
	
		<text id="text203" transform="matrix(1.2929 0 0 1.2929 417.9146 168.1688)" fill="#2B2828" font-family="'ArialMT'" font-size="9">Q</text>
</g>
<g id="g205" transform="matrix(0.774557,0,0,0.77345,-182.661,-10.3173)">
	
		<text id="text207" transform="matrix(1.2929 0 0 1.2929 417.8697 168.1688)" fill="#2B2828" font-family="'ArialMT'" font-size="9">W</text>
</g>
<g id="g209" transform="matrix(0.774557,0,0,0.77345,-150,-10.3173)">
	<text id="text211" transform="matrix(1.2929 0 0 1.2929 417.817 168.1688)" fill="#2B2828" font-family="'ArialMT'" font-size="9">E</text>
</g>
<g id="g213" transform="matrix(0.774557,0,0,0.77345,-121.298,-10.3173)">
	
		<text id="text215" transform="matrix(1.2929 0 0 1.2929 417.7704 168.1688)" fill="#2B2828" font-family="'ArialMT'" font-size="9">R</text>
</g>
<g id="g217" transform="matrix(0.774557,0,0,0.77345,-90.6165,-10.3173)">
	
		<text id="text219" transform="matrix(1.2929 0 0 1.2929 417.7209 168.1688)" fill="#2B2828" font-family="'ArialMT'" font-size="9">T</text>
</g>
<g id="g221" transform="matrix(0.774557,0,0,0.77345,-60.9247,-10.3173)">
	
		<text id="text223" transform="matrix(1.2929 0 0 1.2929 417.6731 168.1688)" fill="#2B2828" font-family="'ArialMT'" font-size="9">Y</text>
</g>
<g id="g225" transform="matrix(0.774557,0,0,0.77345,-31.2329,-10.3173)">
	
		<text id="text227" transform="matrix(1.2929 0 0 1.2929 417.6252 168.1688)" fill="#2B2828" font-family="'ArialMT'" font-size="9">U</text>
</g>
<g id="g229" transform="matrix(0.774557,0,0,0.77345,1.42831,-10.3173)">
	
		<text id="text231" transform="matrix(1.2929 0 0 1.2929 417.5729 168.1688)" fill="#2B2828" font-family="'ArialMT'" font-size="9">I</text>
</g>
<g id="g233" transform="matrix(0.774557,0,0,0.77345,27.1613,-10.3173)">
	
		<text id="text235" transform="matrix(1.2929 0 0 1.2929 417.5305 168.1688)" fill="#2B2828" font-family="'ArialMT'" font-size="9">O</text>
</g>
<g id="g237" transform="matrix(0.774557,0,0,0.77345,57.8426,-10.3173)">
	
		<text id="text239" transform="matrix(1.2929 0 0 1.2929 417.4805 168.1688)" fill="#2B2828" font-family="'ArialMT'" font-size="9">P</text>
</g>
<g id="g241" transform="matrix(0.774557,0,0,0.77345,-202.456,15.3789)">
	
		<text id="text243" transform="matrix(1.2929 0 0 1.2929 417.9013 168.1273)" fill="#2B2828" font-family="'ArialMT'" font-size="9">A</text>
</g>
<g id="g245" transform="matrix(0.774557,0,0,0.77345,-171.774,15.3789)">
	
		<text id="text247" transform="matrix(1.2929 0 0 1.2929 417.8524 168.1273)" fill="#2B2828" font-family="'ArialMT'" font-size="9">S</text>
</g>
<g id="g249" transform="matrix(0.774557,0,0,0.77345,-143.072,15.3789)">
	
		<text id="text251" transform="matrix(1.2929 0 0 1.2929 417.8059 168.1273)" fill="#2B2828" font-family="'ArialMT'" font-size="9">D</text>
</g>
<g id="g253" transform="matrix(0.774557,0,0,0.77345,-112.39,15.3789)">
	
		<text id="text255" transform="matrix(1.2929 0 0 1.2929 417.7563 168.1273)" fill="#2B2828" font-family="'ArialMT'" font-size="9">F</text>
</g>
<g id="g257" transform="matrix(0.774557,0,0,0.77345,-83.6883,15.3789)">
	
		<text id="text259" transform="matrix(1.2929 0 0 1.2929 417.7102 168.1273)" fill="#2B2828" font-family="'ArialMT'" font-size="9">G</text>
</g>
<g id="g261" transform="matrix(0.774557,0,0,0.77345,-53.9965,15.3789)">
	
		<text id="text263" transform="matrix(1.2929 0 0 1.2929 417.6618 168.1273)" fill="#2B2828" font-family="'ArialMT'" font-size="9">H</text>
</g>
<g id="g265" transform="matrix(0.774557,0,0,0.77345,-22.3252,15.3789)">
	
		<text id="text267" transform="matrix(1.2929 0 0 1.2929 417.6108 168.1273)" fill="#2B2828" font-family="'ArialMT'" font-size="9">J</text>
</g>
<g id="g269" transform="matrix(0.774557,0,0,0.77345,5.38717,15.3789)">
	
		<text id="text271" transform="matrix(1.2929 0 0 1.2929 417.5667 168.1273)" fill="#2B2828" font-family="'ArialMT'" font-size="9">K</text>
</g>
<g id="g273" transform="matrix(0.774557,0,0,0.77345,36.0689,15.3789)">
	
		<text id="text275" transform="matrix(1.2929 0 0 1.2929 417.5162 168.1273)" fill="#2B2828" font-family="'ArialMT'" font-size="9">L</text>
</g>
<g id="g277" transform="matrix(0.774557,0,0,0.77345,-190.579,40.0868)">
	
		<text id="text279" transform="matrix(1.2929 0 0 1.2929 417.8824 168.0871)" fill="#2B2828" font-family="'ArialMT'" font-size="9">Z</text>
</g>
<g id="g281" transform="matrix(0.774557,0,0,0.77345,-160.887,40.0868)">
	
		<text id="text283" transform="matrix(1.2929 0 0 1.2929 417.8344 168.0871)" fill="#2B2828" font-family="'ArialMT'" font-size="9">X</text>
</g>
<g id="g285" transform="matrix(0.774557,0,0,0.77345,-131.195,40.0868)">
	
		<text id="text287" transform="matrix(1.2929 0 0 1.2929 417.7863 168.0871)" fill="#2B2828" font-family="'ArialMT'" font-size="9">C</text>
</g>
<g id="g289" transform="matrix(0.774557,0,0,0.77345,-101.504,40.0868)">
	
		<text id="text291" transform="matrix(1.2929 0 0 1.2929 417.7389 168.0871)" fill="#2B2828" font-family="'ArialMT'" font-size="9">V</text>
</g>
<g id="g293" transform="matrix(0.774557,0,0,0.77345,-71.8117,40.0868)">
	
		<text id="text295" transform="matrix(1.2929 0 0 1.2929 417.6905 168.0871)" fill="#2B2828" font-family="'ArialMT'" font-size="9">B</text>
</g>
<g id="g297" transform="matrix(0.774557,0,0,0.77345,-42.1195,40.0868)">
	
		<text id="text299" transform="matrix(1.2929 0 0 1.2929 417.6428 168.0871)" fill="#2B2828" font-family="'ArialMT'" font-size="9">N</text>
</g>
<g id="g301" transform="matrix(0.774557,0,0,0.77345,-13.4176,40.0868)">
	
		<text id="text303" transform="matrix(1.2929 0 0 1.2929 417.5965 168.0871)" fill="#2B2828" font-family="'ArialMT'" font-size="9">M</text>
</g>
<path id="path305" fill="none" d="M565.299,178.505v-9.986"/>
<path id="path309" fill="none" d="M565.299,193.485v10.986"/>
<path id="path313" fill="none" d="M589.269,198.481h9.987"/>
<path id="path317" fill="none" d="M540.33,198.481h-10.986"/>
<g id="g387" transform="matrix(0.774557,0,0,0.77345,239.952,-83.4525)">
	
		<text id="text389" transform="matrix(1.2929 0 0 1.2929 405.5672 179.923)" fill="#2B2828" font-family="'ArialMT'" font-size="6.9523">Scroll</text>
</g>
<g id="g391" transform="matrix(0.774557,0,0,0.77345,239.952,-75.546)">
	
		<text id="text393" transform="matrix(1.2929 0 0 1.2929 405.5672 179.9101)" fill="#2B2828" font-family="'ArialMT'" font-size="6.9523">Lock</text>
</g>
<g id="g395" transform="matrix(0.774557,0,0,0.77345,209.271,-88.3941)">
	
		<text id="text397" transform="matrix(1.2929 0 0 1.2929 405.6181 179.9308)" fill="#2B2828" font-family="'ArialMT'" font-size="6">Print</text>
</g>
<g id="g399" transform="matrix(0.774557,0,0,0.77345,209.271,-80.4877)">
	<text id="text401" transform="matrix(1.2929 0 0 1.2929 405.6181 179.918)" fill="#2B2828" font-family="'ArialMT'" font-size="6">Scrn</text>
</g>
<g id="g403" transform="matrix(0.774557,0,0,0.77345,209.271,-72.5812)">
	
		<text id="text405" transform="matrix(1.2929 0 0 1.2929 405.6181 179.9063)" fill="#2B2828" font-family="'ArialMT'" font-size="6">SysRq</text>
</g>
<path id="path407" fill="none" d="M520.357,60.653h25.967"/>
<g id="g409" transform="matrix(0.774557,0,0,0.77345,268.654,-87.4057)">
	
		<text id="text411" transform="matrix(1.2929 0 0 1.2929 405.5221 179.9294)" fill="#2B2828" font-family="'ArialMT'" font-size="6.9523">Pause</text>
</g>
<g id="g413" transform="matrix(0.774557,0,0,0.77345,269.644,-73.5692)">
	
		<text id="text415" transform="matrix(1.2929 0 0 1.2929 405.5199 179.9072)" fill="#2B2828" font-family="'ArialMT'" font-size="6.9523">Break</text>
</g>
<path id="path417" fill="none" d="M580.28,59.655h24.969"/>
<g id="g419" transform="matrix(0.774557,0,0,0.77345,-198.497,-78.5109)">
	
		<text id="text421" transform="matrix(1.2929 0 0 1.2929 406.2755 179.9152)" fill="#2B2828" font-family="'ArialMT'" font-size="10.0423">F1</text>
</g>
<g id="g423" transform="matrix(0.774557,0,0,0.77345,-169.794,-78.5109)">
	
		<text id="text425" transform="matrix(1.2929 0 0 1.2929 406.2297 179.9139)" fill="#2B2828" font-family="'ArialMT'" font-size="10.0423">F2</text>
</g>
<g id="g427" transform="matrix(0.774557,0,0,0.77345,-140.103,-78.5109)">
	
		<text id="text429" transform="matrix(1.2929 0 0 1.2929 406.1816 179.9139)" fill="#2B2828" font-family="'ArialMT'" font-size="10.0423">F3</text>
</g>
<g id="g431" transform="matrix(0.774557,0,0,0.77345,-110.411,-78.5109)">
	
		<text id="text433" transform="matrix(1.2929 0 0 1.2929 406.1336 179.9139)" fill="#2B2828" font-family="'ArialMT'" font-size="10.0423">F4</text>
</g>
<g id="g435" transform="matrix(0.774557,0,0,0.77345,-65.8731,-78.5109)">
	
		<text id="text437" transform="matrix(1.2929 0 0 1.2929 406.0613 179.9139)" fill="#2B2828" font-family="'ArialMT'" font-size="10.0423">F5</text>
</g>
<g id="g439" transform="matrix(0.774557,0,0,0.77345,-36.1812,-78.5109)">
	
		<text id="text441" transform="matrix(1.2929 0 0 1.2929 406.0134 179.9139)" fill="#2B2828" font-family="'ArialMT'" font-size="10.0423">F6</text>
</g>
<g id="g443" transform="matrix(0.774557,0,0,0.77345,-6.48941,-78.5109)">
	
		<text id="text445" transform="matrix(1.2929 0 0 1.2929 405.9656 179.9139)" fill="#2B2828" font-family="'ArialMT'" font-size="10.0423">F7</text>
</g>
<g id="g447" transform="matrix(0.774557,0,0,0.77345,23.2024,-78.5109)">
	
		<text id="text449" transform="matrix(1.2929 0 0 1.2929 405.9185 179.9139)" fill="#2B2828" font-family="'ArialMT'" font-size="10.0423">F8</text>
</g>
<g id="g451" transform="matrix(0.774557,0,0,0.77345,66.7503,-78.5109)">
	
		<text id="text453" transform="matrix(1.2929 0 0 1.2929 405.8478 179.9139)" fill="#2B2828" font-family="'ArialMT'" font-size="10.0423">F9</text>
</g>
<g id="g455" transform="matrix(0.774557,0,0,0.77345,93.4728,-78.5109)">
	
		<text id="text457" transform="matrix(1.2929 0 0 1.2929 405.8039 179.9139)" fill="#2B2828" font-family="'ArialMT'" font-size="10.0423">F10</text>
</g>
<g id="g459" transform="matrix(0.774557,0,0,0.77345,124.154,-78.5109)">
	
		<text id="text461" transform="matrix(1.2929 0 0 1.2929 405.754 179.9139)" fill="#2B2828" font-family="'ArialMT'" font-size="10.0423">F11</text>
</g>
<g id="g463" transform="matrix(0.774557,0,0,0.77345,152.856,-78.5109)">
	
		<text id="text465" transform="matrix(1.2929 0 0 1.2929 405.7089 179.9139)" fill="#2B2828" font-family="'ArialMT'" font-size="10.0423">F12</text>
</g>
<g id="g467" transform="matrix(0.774557,0,0,0.77345,-258.87,-79.4993)">
	
		<text id="text469" transform="matrix(1.2929 0 0 1.2929 406.3732 179.9166)" fill="#2B2828" font-family="'ArialMT'" font-size="6.9523">Esc</text>
</g>
<g id="g471" transform="matrix(0.774557,0,0,0.77345,240.942,-38.9784)">
	
		<text id="text473" transform="matrix(1.2929 0 0 1.2929 405.5663 179.8517)" fill="#2B2828" font-family="'ArialMT'" font-size="6.9523">Home</text>
</g>
<g id="g475" transform="matrix(0.774557,0,0,0.77345,244.901,-13.2822)">
	
		<text id="text477" transform="matrix(1.2929 0 0 1.2929 405.5599 179.8102)" fill="#2B2828" font-family="'ArialMT'" font-size="6.9523">End</text>
</g>
<g id="g479" transform="matrix(0.774557,0,0,0.77345,271.624,-17.2354)">
	
		<text id="text481" transform="matrix(1.2929 0 0 1.2929 405.5179 179.8166)" fill="#2B2828" font-family="'ArialMT'" font-size="6.9523">Page</text>
</g>
<g id="g483" transform="matrix(0.774557,0,0,0.77345,271.624,-9.32892)">
	
		<text id="text485" transform="matrix(1.2929 0 0 1.2929 405.5179 179.8037)" fill="#2B2828" font-family="'ArialMT'" font-size="6.9523">Down</text>
</g>
<g id="g487" transform="matrix(0.774557,0,0,0.77345,272.613,-43.9201)">
	
		<text id="text489" transform="matrix(1.2929 0 0 1.2929 405.5144 179.8592)" fill="#2B2828" font-family="'ArialMT'" font-size="6.9523">Page</text>
</g>
<g id="g491" transform="matrix(0.774557,0,0,0.77345,272.613,-36.0132)">
	
		<text id="text493" transform="matrix(1.2929 0 0 1.2929 405.5144 179.8464)" fill="#2B2828" font-family="'ArialMT'" font-size="6.9523">Up</text>
</g>
<g id="g495" transform="matrix(0.774557,0,0,0.77345,212.24,-38.9784)">
	
		<text id="text497" transform="matrix(1.2929 0 0 1.2929 405.6127 179.852)" fill="#2B2828" font-family="'ArialMT'" font-size="6.9523">Insert</text>
</g>
<g id="g499" transform="matrix(0.774557,0,0,0.77345,211.25,-13.2822)">
	
		<text id="text501" transform="matrix(1.2929 0 0 1.2929 405.615 179.8105)" fill="#2B2828" font-family="'ArialMT'" font-size="6.9523">Delete</text>
</g>
<g id="g507" transform="matrix(0.774557,0,0,0.77345,-233.137,-31.0719)">
	
		<text id="text509" transform="matrix(1.2929 0 0 1.2929 428.2794 179.8391)" fill="#2B2828" font-family="'ArialMT'" font-size="9">1</text>
</g>
<g id="g511" transform="matrix(0.774557,0,0,0.77345,-204.435,-31.0719)">
	
		<text id="text513" transform="matrix(1.2929 0 0 1.2929 425.6509 179.8391)" fill="#2B2828" font-family="'ArialMT'" font-size="9">2</text>
</g>
<g id="g515" transform="matrix(0.774557,0,0,0.77345,-174.743,-31.0719)">
	
		<text id="text517" transform="matrix(1.2929 0 0 1.2929 426.8945 179.8391)" fill="#2B2828" font-family="'ArialMT'" font-size="9">3</text>
</g>
<g id="g519" transform="matrix(0.774557,0,0,0.77345,-145.051,-31.0719)">
	
		<text id="text521" transform="matrix(1.2929 0 0 1.2929 426.8465 179.8391)" fill="#2B2828" font-family="'ArialMT'" font-size="9">4</text>
</g>
<g id="g523" transform="matrix(0.774557,0,0,0.77345,-114.37,-31.0719)">
	
		<text id="text525" transform="matrix(1.2929 0 0 1.2929 425.5058 179.8391)" fill="#2B2828" font-family="'ArialMT'" font-size="9">5</text>
</g>
<g id="g527" transform="matrix(0.774557,0,0,0.77345,-84.6778,-31.0719)">
	
		<text id="text529" transform="matrix(1.2929 0 0 1.2929 425.4581 179.8391)" fill="#2B2828" font-family="'ArialMT'" font-size="9">6</text>
</g>
<g id="g531" transform="matrix(0.774557,0,0,0.77345,-54.986,-31.0719)">
	
		<text id="text533" transform="matrix(1.2929 0 0 1.2929 425.4097 179.8391)" fill="#2B2828" font-family="'ArialMT'" font-size="9">7</text>
</g>
<g id="g535" transform="matrix(0.774557,0,0,0.77345,-26.2841,-31.0719)">
	
		<text id="text537" transform="matrix(1.2929 0 0 1.2929 426.6544 179.8391)" fill="#2B2828" font-family="'ArialMT'" font-size="9">8</text>
</g>
<g id="g539" transform="matrix(0.774557,0,0,0.77345,3.40774,-31.0719)">
	
		<text id="text541" transform="matrix(1.2929 0 0 1.2929 426.6066 179.8391)" fill="#2B2828" font-family="'ArialMT'" font-size="9">9</text>
</g>
<g id="g543" transform="matrix(0.774557,0,0,0.77345,34.0895,-31.0719)">
	
		<text id="text545" transform="matrix(1.2929 0 0 1.2929 425.2662 179.8391)" fill="#2B2828" font-family="'ArialMT'" font-size="9">0</text>
</g>
<path id="path547" fill="none" d="M483.401,96.608h-10.986"/>
<path id="path551" fill="#97C5D5" d="M414.487,185.497c-0.999,0-1.997-0.998-1.997-2.996v-16.979c0-1,0.998-2.998,1.997-2.998
	h72.909c1.995,0,2.994,1.998,2.994,2.998v16.979c0,1.998-0.999,2.996-2.994,2.996H414.487z"/>
<path id="path559" fill="#97C5D5" d="M454.438,187.495h32.959c1.997,0,2.996,0.998,2.996,2.996v17.977
	c0,1.998-0.999,2.997-2.996,2.997h-32.959c-1.995,0-2.994-0.999-2.994-2.997v-17.977
	C451.441,188.493,452.44,187.495,454.438,187.495z"/>
<path id="path561" fill="#97C5D5" d="M51.941,185.497c-0.999,0-2.997-0.998-2.997-2.996c0-4.994,0-10.986,0-16.979
	c0-1,1.998-2.998,2.997-2.998c14.981,0,40.949,0,56.929,0c0.999,0,1.998,1.998,1.998,2.998c0,5.992,0,11.984,0,16.979
	c0,1.998-0.999,2.996-1.998,2.996C92.89,185.497,66.922,185.497,51.941,185.497z"/>
<path id="path563" fill="#97C5D5" d="M51.941,187.495h29.962c0.999,0,1.998,0.998,1.998,2.996v17.977
	c0,1.998-0.999,2.997-1.998,2.997H51.941c-1.998,0-2.997-0.999-2.997-2.997v-17.977C48.945,188.493,49.944,187.495,51.941,187.495z"
	/>
<path id="path565" fill="#97C5D5" d="M91.891,187.495h18.977c1.998,0,2.996,0.998,2.996,2.996v17.977c0,1-0.999,2.997-2.996,2.997
	H91.891c-0.999,0-2.996-1.997-2.996-2.997v-17.977C88.895,188.493,90.893,187.495,91.891,187.495z"/>
<path id="path567" fill="#97C5D5" d="M120.855,187.495h24.969c0.999,0,1.998,0.998,1.998,2.996v17.977c0,1-0.999,2.997-1.998,2.997
	h-24.969c-0.999,0-1.998-1.997-1.998-2.997v-17.977C118.857,188.493,119.856,187.495,120.855,187.495z"/>
<g id="g569" transform="matrix(0.774557,0,0,0.77345,150.877,63.8059)">
	
		<text id="text571" transform="matrix(1.2929 0 0 1.2929 405.7119 179.6865)" fill="#2B2828" font-family="'ArialMT'" font-size="6.9523">Ctrl</text>
</g>
<g id="g573" transform="matrix(0.774557,0,0,0.77345,-252.932,63.8059)">
	
		<text id="text575" transform="matrix(1.2929 0 0 1.2929 406.3637 179.6865)" fill="#2B2828" font-family="'ArialMT'" font-size="6.9523">Ctrl</text>
</g>
<g id="g577" transform="matrix(0.774557,0,0,0.77345,-185.63,62.8175)">
	
		<text id="text579" transform="matrix(1.2929 0 0 1.2929 406.2549 180.9808)" fill="#2B2828" font-family="'ArialMT'" font-size="6.9523">Alt</text>
</g>
<g id="g581" transform="matrix(0.774557,0,0,0.77345,3.40774,-45.8965)">
	
		<text id="text583" transform="matrix(1.2929 0 0 1.2929 426.6066 181.8604)" fill="#2B2828" font-family="'ArialMT'" font-size="9">(</text>
</g>
<g id="g585" transform="matrix(0.774557,0,0,0.77345,34.0895,-45.8965)">
	
		<text id="text587" transform="matrix(1.2929 0 0 1.2929 426.5573 181.8604)" fill="#2B2828" font-family="'ArialMT'" font-size="9">)</text>
</g>
<g id="g589" transform="matrix(0.774557,0,0,0.77345,-25.2942,-45.8965)">
	<text id="text591" transform="matrix(1.2929 0 0 1.2929 426.653 183.1533)" fill="#2B2828" font-family="'ArialMT'" font-size="9">*</text>
</g>
<g id="g593" transform="matrix(0.774557,0,0,0.77345,-55.9759,-44.9081)">
	
		<text id="text595" transform="matrix(1.2929 0 0 1.2929 426.7029 179.8603)" fill="#2B2828" font-family="'ArialMT'" font-size="9">&amp;</text>
</g>
<g id="g597" transform="matrix(0.774557,0,0,0.77345,-84.6778,-44.9081)">
	
		<text id="text599" transform="matrix(1.2929 0 0 1.2929 426.7492 181.1533)" fill="#2B2828" font-family="'ArialMT'" font-size="9">^</text>
</g>
<g id="g601" transform="matrix(0.774557,0,0,0.77345,-115.36,-44.9081)">
	
		<text id="text603" transform="matrix(1.2929 0 0 1.2929 424.2163 179.8605)" fill="#2B2828" font-family="'ArialMT'" font-size="9">%</text>
</g>
<g id="g605" transform="matrix(0.774557,0,0,0.77345,-145.051,-44.9081)">
	
		<text id="text607" transform="matrix(1.2929 0 0 1.2929 426.8465 179.8605)" fill="#2B2828" font-family="'ArialMT'" font-size="9">$</text>
</g>
<g id="g609" transform="matrix(0.774557,0,0,0.77345,-174.743,-44.9081)">
	
		<text id="text611" transform="matrix(1.2929 0 0 1.2929 426.8945 181.1548)" fill="#2B2828" font-family="'ArialMT'" font-size="9">#</text>
</g>
<g id="g613" transform="matrix(0.774557,0,0,0.77345,-205.425,-44.9081)">
	
		<text id="text615" transform="matrix(1.2929 0 0 1.2929 424.3614 179.8619)" fill="#2B2828" font-family="'ArialMT'" font-size="9">@</text>
</g>
<g id="g617" transform="matrix(0.774557,0,0,0.77345,-233.137,-44.9081)">
	<text id="text619" transform="matrix(1.2929 0 0 1.2929 429.5705 179.862)" fill="#2B2828" font-family="'ArialMT'" font-size="9">!</text>
</g>
<g id="g621" transform="matrix(0.774557,0,0,0.77345,-242.045,38.11)">
	
		<text id="text623" transform="matrix(1.2929 0 0 1.2929 407.6367 179.7282)" fill="#2B2828" font-family="'ArialMT'" font-size="6.9523">Shift</text>
</g>
<path id="path625" fill="none" d="M58.933,167.521l-3.995,3.996h1.998v7.989h4.994v-7.989h1.998L58.933,167.521z"/>
<g id="g627" transform="matrix(0.774557,0,0,0.77345,130.092,38.11)">
	
		<text id="text629" transform="matrix(1.2929 0 0 1.2929 405.7458 179.7282)" fill="#2B2828" font-family="'ArialMT'" font-size="6.9523">Shift</text>
</g>
<path id="path631" fill="none" d="M421.479,167.521l-3.993,3.996h1.998v7.989h3.993v-7.989h1.997L421.479,167.521z"/>
<g id="g633" transform="matrix(0.774557,0,0,0.77345,-262.829,-30.0835)">
	
		<text id="text635" transform="matrix(1.2929 0 0 1.2929 425.7454 179.8395)" fill="#2B2828" font-family="'ArialMT'" font-size="9">`</text>
</g>
<g id="g637" transform="matrix(0.774557,0,0,0.77345,-263.819,-44.9081)">
	<text id="text639" transform="matrix(1.2929 0 0 1.2929 425.747 179.8633)" fill="#2B2828" font-family="'ArialMT'" font-size="9">~</text>
</g>
<g id="g641" transform="matrix(0.774557,0,0,0.77345,-262.829,-18.2238)">
	
		<text id="text643" transform="matrix(1.2929 0 0 1.2929 425.7454 177.2357)" fill="#2B2828" font-family="'ArialMT'" font-size="6.9523">Tab</text>
</g>
<g id="g645" transform="matrix(0.774557,0,0,0.77345,-247.983,8.46086)">
	
		<text id="text647" transform="matrix(1.2929 0 0 1.2929 406.3558 179.7772)" fill="#2B2828" font-family="'ArialMT'" font-size="6.9523">Caps</text>
</g>
<g id="g649" transform="matrix(0.774557,0,0,0.77345,-247.983,16.3673)">
	
		<text id="text651" transform="matrix(1.2929 0 0 1.2929 406.3558 179.7656)" fill="#2B2828" font-family="'ArialMT'" font-size="6.9523">Lock</text>
</g>
<g id="g653" transform="matrix(0.774557,0,0,0.77345,62.7914,-31.0719)">
	<text id="text655" transform="matrix(1.2929 0 0 1.2929 426.511 179.8423)" fill="#2B2828" font-family="'ArialMT'" font-size="9">-</text>
</g>
<g id="g657" transform="matrix(0.774557,0,0,0.77345,62.7914,-45.8965)">
	<text id="text659" transform="matrix(1.2929 0 0 1.2929 425.2199 178.572)" fill="#2B2828" font-family="'ArialMT'" font-size="9">_</text>
</g>
<g id="g661" transform="matrix(0.774557,0,0,0.77345,92.4829,-31.0719)">
	
		<text id="text663" transform="matrix(1.2929 0 0 1.2929 425.1719 179.8424)" fill="#2B2828" font-family="'ArialMT'" font-size="9">=</text>
</g>
<g id="g665" transform="matrix(0.774557,0,0,0.77345,92.4829,-45.8965)">
	<text id="text667" transform="matrix(1.2929 0 0 1.2929 426.463 181.1579)" fill="#2B2828" font-family="'ArialMT'" font-size="9">+</text>
</g>
<g id="g677" transform="matrix(0.774557,0,0,0.77345,82.5861,-6.36408)">
	
		<text id="text679" transform="matrix(1.2929 0 0 1.2929 426.4785 178.5081)" fill="#2B2828" font-family="'ArialMT'" font-size="9.2698">[</text>
</g>
<g id="g681" transform="matrix(0.774557,0,0,0.77345,81.5962,-19.2122)">
	
		<text id="text683" transform="matrix(1.2929 0 0 1.2929 426.4806 179.8231)" fill="#2B2828" font-family="'ArialMT'" font-size="9.2698">{</text>
</g>
<g id="g685" transform="matrix(0.774557,0,0,0.77345,111.288,-6.36408)">
	
		<text id="text687" transform="matrix(1.2929 0 0 1.2929 427.7232 178.5081)" fill="#2B2828" font-family="'ArialMT'" font-size="9.2698">]</text>
</g>
<g id="g689" transform="matrix(0.774557,0,0,0.77345,111.288,-19.2122)">
	
		<text id="text691" transform="matrix(1.2929 0 0 1.2929 427.7232 179.8231)" fill="#2B2828" font-family="'ArialMT'" font-size="9.2698">}</text>
</g>
<g id="g693" transform="matrix(0.774557,0,0,0.77345,59.8224,18.3438)">
	
		<text id="text695" transform="matrix(1.2929 0 0 1.2929 427.8074 179.762)" fill="#2B2828" font-family="'ArialMT'" font-size="9.2698">;</text>
</g>
<g id="g697" transform="matrix(0.774557,0,0,0.77345,59.8224,5.49565)">
	
		<text id="text699" transform="matrix(1.2929 0 0 1.2929 427.8074 179.7829)" fill="#2B2828" font-family="'ArialMT'" font-size="9.2698">:</text>
</g>
<g id="g701" transform="matrix(0.774557,0,0,0.77345,89.5139,19.3322)">
	
		<text id="text703" transform="matrix(1.2929 0 0 1.2929 427.7594 179.7595)" fill="#2B2828" font-family="'ArialMT'" font-size="9.2698">&apos;</text>
</g>
<g id="g705" transform="matrix(0.774557,0,0,0.77345,88.524,6.48405)">
	
		<text id="text707" transform="matrix(1.2929 0 0 1.2929 427.7615 179.7803)" fill="#2B2828" font-family="'ArialMT'" font-size="9.2698">&quot;</text>
</g>
<g id="g709" transform="matrix(0.774557,0,0,0.77345,70.7091,45.0281)">
	
		<text id="text711" transform="matrix(1.2929 0 0 1.2929 425.2077 179.7209)" fill="#2B2828" font-family="'ArialMT'" font-size="9.2698">/</text>
</g>
<g id="g713" transform="matrix(0.774557,0,0,0.77345,70.7091,32.1803)">
	
		<text id="text715" transform="matrix(1.2929 0 0 1.2929 425.2077 179.7401)" fill="#2B2828" font-family="'ArialMT'" font-size="9.2698">?</text>
</g>
<g id="g717" transform="matrix(0.774557,0,0,0.77345,42.0072,45.0281)">
	
		<text id="text719" transform="matrix(1.2929 0 0 1.2929 430.4182 177.5745)" fill="#2B2828" font-family="'ArialMT'" font-size="9.2698">.</text>
</g>
<g id="g721" transform="matrix(0.774557,0,0,0.77345,41.0173,32.1803)">
	
		<text id="text723" transform="matrix(1.2929 0 0 1.2929 427.8369 178.4471)" fill="#2B2828" font-family="'ArialMT'" font-size="9.2698">&gt;</text>
</g>
<g id="g725" transform="matrix(0.774557,0,0,0.77345,11.3255,45.0281)">
	
		<text id="text727" transform="matrix(1.2929 0 0 1.2929 430.4675 177.1351)" fill="#2B2828" font-family="'ArialMT'" font-size="9.2698">,</text>
</g>
<g id="g729" transform="matrix(0.774557,0,0,0.77345,10.3359,32.1803)">
	
		<text id="text731" transform="matrix(1.2929 0 0 1.2929 427.8858 178.4471)" fill="#2B2828" font-family="'ArialMT'" font-size="9.2698">&lt;</text>
</g>
<path id="path865" fill="#97C5D5" d="M360.555,187.498h23.973c0.998,0,1.997,0.998,1.997,2.996v17.977c0,1-0.999,2.997-1.997,2.997
	h-23.973c-0.998,0-1.997-1.997-1.997-2.997v-17.977C358.558,188.496,359.557,187.498,360.555,187.498z"/>
<g id="g867" transform="matrix(0.774557,0,0,0.77345,49.697,62.8175)">
	
		<text id="text869" transform="matrix(1.2929 0 0 1.2929 405.875 179.6902)" fill="#2B2828" font-family="'ArialMT'" font-size="6.9523">Alt</text>
</g>
<g id="g11615">
	<path fill="#2B2828" d="M13-10.998"/>
	<path id="path10716" fill="#2B2828" stroke="#2B2828" d="M82.694,117.004l3.457-1.998v3.996L82.694,117.004z"/>
	<path id="path4208" fill="#2B2828" stroke="#2B2828" d="M85,117.004"/>
	<path id="path5410" fill="#2B2828" stroke="#2B2828" stroke-width="1.0003" d="M82,115.004v4"/>
</g>
<g id="g11619">
	<path fill="#2B2828" stroke="#2B2828" stroke-width="1.0003" d="M8-9.998"/>
	<path id="path10719" fill="#2B2828" stroke="#2B2828" d="M89.306,126.004l-3.457,1.998v-3.996L89.306,126.004z"/>
	<path id="path4208-0" fill="#2B2828" stroke="#2B2828" d="M87,126.004"/>
	<path id="path5410-9" fill="#2B2828" stroke="#2B2828" stroke-width="1.0003" d="M90,124.004v4"/>
</g>
<path fill="#2B2828" stroke="#2B2828" stroke-width="1.0003" d="M5-9.998"/>
<path id="path6545" fill="#2B2828" stroke="#2B2828" d="M455,145.004"/>
<path fill="#2B2828" stroke="#2B2828" d="M5-9.998"/>
<path id="path11856" fill="#2B2828" stroke="#2B2828" d="M565,205.373l-2-3.46h4L565,205.373z"/>
<path id="path11623" fill="#2B2828" stroke="#2B2828" d="M565,203.065"/>
<path fill="#2B2828" stroke="#2B2828" d="M5-9.998"/>
<path id="path11856_1_" fill="#2B2828" stroke="#2B2828" d="M527.693,200.004l3.46-2v4L527.693,200.004z"/>
<path id="path11623-1" fill="#2B2828" stroke="#2B2828" d="M530,200.004"/>
<path fill="#2B2828" stroke="#2B2828" d="M5-9.998"/>
<path id="path11856_2_" fill="#2B2828" stroke="#2B2828" d="M602.308,200.004l-3.46,2v-4L602.308,200.004z"/>
<path id="path11623-1-7" fill="#2B2828" stroke="#2B2828" d="M600,200.004"/>
<path fill="#2B2828" stroke="#2B2828" d="M5-9.998"/>
<path id="path11856_3_" fill="#2B2828" stroke="#2B2828" d="M565,167.695l2,3.461h-4L565,167.695z"/>
<path id="path11623-2" fill="#2B2828" stroke="#2B2828" d="M565,170.004"/>
<path fill="#2B2828" stroke="#2B2828" d="M5-9.998"/>
<path fill="#2B2828" stroke="#2B2828" d="M5-9.998"/>
<path fill="#2B2828" stroke="#2B2828" d="M5-9.998"/>
<path fill="#2B2828" stroke="#2B2828" d="M5-9.998"/>
<path fill="#2B2828" stroke="#2B2828" d="M5-9.998"/>
<path id="path11623-1-0" fill="#2B2828" stroke="#2B2828" d="M439.518,97.691"/>
<path id="path11856_9_" fill="#2B2828" stroke="#2B2828" d="M285.693,154.004l3.46-2v4L285.693,154.004z"/>
<path id="path11623-2_1_" fill="#2B2828" stroke="#2B2828" d="M318,126.004"/>
<path id="path11856_10_" fill="#2B2828" stroke="#2B2828" d="M309,127.696l2,3.46h-4L309,127.696z"/>
<path id="path11856_11_" fill="#2B2828" stroke="#2B2828" d="M317,155.373l-2-3.46h4L317,155.373z"/>
<path id="path11856_12_" fill="#2B2828" stroke="#2B2828" d="M348.308,154.004l-3.46,2v-4L348.308,154.004z"/>
<path id="path561_1_" fill="#97C5D5" d="M431.102,160.695c-1,0-2.998-0.998-2.998-2.996c0-4.994,0-10.985,0-16.979
	c0-0.997,1.998-2.995,2.998-2.995c14.98,0,40.949,0,56.93,0c0.999,0,1.998,1.998,1.998,2.995c0,5.992,0,11.985,0,16.979
	c0,1.998-0.999,2.996-1.998,2.996C472.051,160.695,446.082,160.695,431.102,160.695z"/>
<path id="path555" fill="none" d="M471.416,119.581v10.985h-9.987"/>
<path id="path197_1_" fill="#97C5D5" d="M453.047,135.786c-1.782,0-2.674-1.998-2.674-2.996v-17.979
	c0-1.998,0.892-2.996,2.674-2.996h33.851c1.781,0,2.674,0.999,2.674,2.996v17.979c0,0.998-0.893,2.996-2.674,2.996H453.047z"/>
<text transform="matrix(1 0 0 1 483.4659 121.5186)" font-family="'MyriadPro-Regular'" font-size="9.27">|</text>
<text transform="matrix(1 0 0 1 482.8975 132.7432)" font-family="'MyriadPro-Regular'" font-size="9.27">\</text>
<text transform="matrix(1 0 0 1 277.7759 123.9844)" font-family="'ArialMT'" font-size="6">Page</text>
<text transform="matrix(1 0 0 1 277.7759 131.1846)" font-family="'ArialMT'" font-size="6">Up</text>
<text transform="matrix(1 0 0 1 336.5166 123.9844)" font-family="'ArialMT'" font-size="6">Page</text>
<text transform="matrix(1 0 0 1 336.5166 131.1846)" font-family="'ArialMT'" font-size="6">Down</text>
<g id="g471_1_" transform="matrix(0.774557,0,0,0.77345,240.942,-38.9784)">
	
		<text id="text473_1_" transform="matrix(1.2929 0 0 1.2929 16.9571 250.9643)" fill="#2B2828" font-family="'ArialMT'" font-size="7">Home</text>
</g>
<g id="g475_1_" transform="matrix(0.774557,0,0,0.77345,244.901,-13.2822)">
	
		<text id="text477_1_" transform="matrix(1.2929 0 0 1.2929 165.4227 219.8917)" fill="#2B2828" font-family="'ArialMT'" font-size="6.9523">End</text>
</g>
<path id="path197_2_" fill="#B4BEC1" d="M437.318,110.286c-2.564,0-3.849-1.998-3.849-2.996V89.311c0-1.998,1.283-2.996,3.849-2.996
	h48.717c2.563,0,3.848,0.999,3.848,2.996v17.979c0,0.998-1.283,2.996-3.848,2.996H437.318z"/>
<text transform="matrix(1 0 0 1 451.7393 99.7364)" font-family="'ArialMT'" font-size="7">Backspace</text>
<line fill="none" x1="438.25" y1="151.252" x2="446" y2="151.252"/>
<line fill="none" x1="446" y1="151.252" x2="446" y2="149.002"/>
<g>
	<path id="path3528" fill="#2B2828" stroke="#2B2828" d="M444.089,151.607l3.46-2v4L444.089,151.607z"/>
	<line fill="none" stroke="#2B2828" x1="447.125" y1="151.627" x2="454.875" y2="151.627"/>
	<line fill="none" stroke="#2B2828" x1="454.875" y1="151.627" x2="454.875" y2="149.377"/>
</g>
<text transform="matrix(1 0 0 1 458 152.252)" font-family="'ArialMT'" font-size="6">Enter</text>
<text transform="matrix(1 0 0 1 54.8335 153.668)" fill="#C92424" font-family="'ArialMT'" font-size="13">♥</text>
<text transform="matrix(1 0 0 1 87.792 153.668)" fill="#C92424" font-family="'ArialMT'" font-size="13">♥</text>
<text transform="matrix(1 0 0 1 266.75 176.502)" font-family="'ArialMT'" font-size="6.8">Back-</text>
<text transform="matrix(1 0 0 1 266.75 182.502)" font-family="'ArialMT'" font-size="6.8">space</text>
<text transform="matrix(1 0 0 1 237.5357 181.3409)" font-family="'ArialMT'" font-size="7">Insert</text>
<text transform="matrix(1 0 0 1 296.5713 182.1085)" font-family="'ArialMT'" font-size="6.8">Delete</text>
<text transform="matrix(1 0 0 1 155.7681 204.2344)" font-family="'ArialMT'" font-size="7">Enter</text>
<text transform="matrix(1 0 0 1 430.3574 202.6631)" font-family="'ArialMT'" font-size="7">Fn</text>
<text transform="matrix(1 0 0 1 94.5537 202.6631)" font-family="'ArialMT'" font-size="7">Win</text>
<text transform="matrix(1 0 0 1 399.0186 202.4483)" font-family="'ArialMT'" font-size="7">Win</text>
<text transform="matrix(1 0 0 1 324.4819 182.002)" font-family="'ArialMT'" font-size="7">Undo</text>
<text transform="matrix(1 0 0 1 355.1436 182.2159)" font-family="'ArialMT'" font-size="7">Redo</text>
<text transform="matrix(1 0 0 1 106 150.835)" font-family="'ArialMT'" font-size="6">Select</text>
<text transform="matrix(1 0 0 1 106 156.835)" font-family="'ArialMT'" font-size="6">All</text>
<text transform="matrix(1 0 0 1 135.8335 156.2794)" font-family="'ArialMT'" font-size="6">Cut</text>
<text transform="matrix(1 0 0 1 165.1665 156.2794)" font-family="'ArialMT'" font-size="6">Copy</text>
<text transform="matrix(1 0 0 1 194.5 156.2794)" font-family="'ArialMT'" font-size="6">Paste</text>
<text transform="matrix(1 0 0 1 187.1665 132.002)" font-family="'ArialMT'" font-size="6">Esc</text>
<text transform="matrix(1 0 0 1 217.1665 127.835)" font-family="'ArialMT'" font-size="6">Close</text>
<text transform="matrix(1 0 0 1 217.1665 132.835)" font-family="'ArialMT'" font-size="6">Tab</text>
<text transform="matrix(1 0 0 1 206.8335 177.835)" font-family="'ArialMT'" font-size="5.5">Close</text>
<text transform="matrix(1 0 0 1 206.8335 182.835)" font-family="'ArialMT'" font-size="5.5">Window</text>
<text transform="matrix(1 0 0 1 50.8335 128.002)" font-family="'ArialMT'" font-size="5.5">Prev</text>
<text transform="matrix(1 0 0 1 50.8335 133.002)" font-family="'ArialMT'" font-size="5.5">Tab</text>
<text transform="matrix(1 0 0 1 98.6665 127.668)" font-family="'ArialMT'" font-size="5.5">Next</text>
<text transform="matrix(1 0 0 1 98.6665 132.668)" font-family="'ArialMT'" font-size="5.5">Tab</text>
</svg>
