<?xml version="1.0" encoding="utf-8"?>
<!-- Generator: Adobe Illustrator 16.0.0, SVG Export Plug-In . SVG Version: 6.00 Build 0)  -->
<!DOCTYPE svg PUBLIC "-//W3C//DTD SVG 1.1//EN" "http://www.w3.org/Graphics/SVG/1.1/DTD/svg11.dtd">
<svg version="1.1"
	 id="svg2" xmlns:dc="http://purl.org/dc/elements/1.1/" xmlns:cc="http://creativecommons.org/ns#" xmlns:rdf="http://www.w3.org/1999/02/22-rdf-syntax-ns#" xmlns:svg="http://www.w3.org/2000/svg"
	 xmlns="http://www.w3.org/2000/svg" xmlns:xlink="http://www.w3.org/1999/xlink" x="0px" y="0px" width="652.314px"
	 height="258.158px" viewBox="-27.5 -10.5 652.314 258.158" enable-background="new -27.5 -10.5 652.314 258.158"
	 xml:space="preserve">
<path id="path9" fill="#F5F6F7" d="M18.206,12.613h565.759c10.088,0,17.85,8.092,17.85,19.777v172.594
	c0,10.783-7.761,20.674-17.85,20.674H18.206c-10.865,0-19.403-9.889-19.403-20.674V32.39C-1.197,20.705,7.34,12.613,18.206,12.613z"
	/>
<path id="path11" fill="#97C5D5" d="M24.941,74.62h19.975c0.999,0,2.997,0.999,2.997,2.996v16.979c0,1.998-1.998,2.997-2.997,2.997
	H24.941c-1.998,0-2.997-0.999-2.997-2.997V77.616C21.945,75.619,22.944,74.62,24.941,74.62z"/>
<path id="path13" fill="#97C5D5" d="M54.904,74.62h19.975c1.998,0,2.996,0.999,2.996,2.996v16.979c0,1.998-0.999,2.997-2.996,2.997
	H54.904c-1.998,0-2.996-0.999-2.996-2.997V77.616C51.908,75.619,52.906,74.62,54.904,74.62z"/>
<path id="path15" fill="#97C5D5" d="M83.868,74.62h19.975c1.998,0,2.997,0.999,2.997,2.996v16.979c0,1.998-0.999,2.997-2.997,2.997
	H83.868c-0.999,0-1.998-0.999-1.998-2.997V77.616C81.87,75.619,82.869,74.62,83.868,74.62z"/>
<path id="path17" fill="#97C5D5" d="M113.83,74.62h19.975c1.998,0,2.996,0.999,2.996,2.996v16.979c0,1.998-0.999,2.997-2.996,2.997
	H113.83c-1.998,0-2.996-0.999-2.996-2.997V77.616C110.834,75.619,111.833,74.62,113.83,74.62z"/>
<path id="path19" fill="#97C5D5" d="M143.792,74.62h19.975c1.998,0,2.996,0.999,2.996,2.996v16.979c0,1.998-0.999,2.997-2.996,2.997
	h-19.975c-0.999,0-2.996-0.999-2.996-2.997V77.616C140.796,75.619,142.794,74.62,143.792,74.62z"/>
<path id="path21" fill="#97C5D5" d="M173.755,74.62h18.977c1.997,0,2.996,0.999,2.996,2.996v16.979c0,1.998-0.999,2.997-2.996,2.997
	h-18.977c-0.999,0-2.996-0.999-2.996-2.997V77.616C170.759,75.619,172.756,74.62,173.755,74.62z"/>
<path id="path23" fill="#97C5D5" d="M202.719,74.62h19.975c1.998,0,2.996,0.999,2.996,2.996v16.979c0,1.998-0.999,2.997-2.996,2.997
	h-19.975c-0.999,0-2.996-0.999-2.996-2.997V77.616C199.723,75.619,201.72,74.62,202.719,74.62z"/>
<path id="path25" fill="#97C5D5" d="M232.681,74.62h19.975c1.998,0,2.996,0.999,2.996,2.996v16.979c0,1.998-0.999,2.997-2.996,2.997
	h-19.975c-0.999,0-2.996-0.999-2.996-2.997V77.616C229.685,75.619,231.683,74.62,232.681,74.62z"/>
<path id="path27" fill="#97C5D5" d="M262.644,74.62h18.977c1.998,0,2.996,0.999,2.996,2.996v16.979c0,1.998-0.999,2.997-2.996,2.997
	h-18.977c-0.999,0-2.996-0.999-2.996-2.997V77.616C259.647,75.619,261.645,74.62,262.644,74.62z"/>
<path id="path29" fill="#97C5D5" d="M291.607,74.62h19.975c1.998,0,2.997,0.999,2.997,2.996v16.979c0,1.998-0.999,2.997-2.997,2.997
	h-19.975c-0.999,0-2.996-0.999-2.996-2.997V77.616C288.611,75.619,290.608,74.62,291.607,74.62z"/>
<path id="path31" fill="#97C5D5" d="M321.57,74.62h19.975c1.998,0,2.996,0.999,2.996,2.996v16.979c0,1.998-0.998,2.997-2.996,2.997
	H321.57c-0.999,0-2.996-0.999-2.996-2.997V77.616C318.574,75.619,320.571,74.62,321.57,74.62z"/>
<path id="path33" fill="#97C5D5" d="M351.532,74.62h19.976c0.998,0,1.997,0.999,1.997,2.996v16.979c0,1.998-0.999,2.997-1.997,2.997
	h-19.976c-0.998,0-2.996-0.999-2.996-2.997V77.616C348.536,75.619,350.534,74.62,351.532,74.62z"/>
<path id="path35" fill="#97C5D5" d="M380.496,74.62h19.976c1.997,0,2.996,0.999,2.996,2.996v16.979c0,1.998-0.999,2.997-2.996,2.997
	h-19.976c-0.999,0-1.997-0.999-1.997-2.997V77.616C378.499,75.619,379.497,74.62,380.496,74.62z"/>
<path id="path41" fill="#C9F7D1" d="M72.881,99.589h18.976c1.998,0,2.996,0.999,2.996,2.996v17.978c0,0.999-0.999,2.996-2.996,2.996
	H72.881c-0.999,0-2.997-1.998-2.997-2.996v-17.978C69.885,100.587,71.882,99.589,72.881,99.589z"/>
<path id="path43" fill="#97C5D5" d="M101.845,99.589h19.975c1.998,0,2.997,0.999,2.997,2.996v17.978
	c0,0.999-0.999,2.996-2.997,2.996h-19.975c-0.999,0-2.997-1.998-2.997-2.996v-17.978C98.849,100.587,100.846,99.589,101.845,99.589z
	"/>
<path id="path45" fill="#97C5D5" d="M131.808,99.589h19.975c1.997,0,2.996,0.999,2.996,2.996v17.978
	c0,0.999-0.999,2.996-2.996,2.996h-19.975c-0.999,0-2.997-1.998-2.997-2.996v-17.978C128.811,100.587,130.809,99.589,131.808,99.589
	z"/>
<path id="path47" fill="#E8A8A5" d="M161.77,99.589h18.976c1.998,0,2.997,0.999,2.997,2.996v17.978c0,0.999-0.999,2.996-2.997,2.996
	H161.77c-0.999,0-2.996-1.998-2.996-2.996v-17.978C158.774,100.587,160.771,99.589,161.77,99.589z"/>
<path id="path49" fill="#F7D7D7" d="M190.734,99.589h19.975c1.997,0,2.996,0.999,2.996,2.996v17.978
	c0,0.999-0.999,2.996-2.996,2.996h-19.975c-0.999,0-1.998-1.998-1.998-2.996v-17.978C188.736,100.587,189.735,99.589,190.734,99.589
	z"/>
<path id="path51" fill="#97C5D5" d="M220.696,99.589h19.975c1.998,0,2.996,0.999,2.996,2.996v17.978
	c0,0.999-0.999,2.996-2.996,2.996h-19.975c-0.999,0-1.998-1.998-1.998-2.996v-17.978C218.699,100.587,219.697,99.589,220.696,99.589
	z"/>
<path id="path53" fill="#EDC07D" d="M250.659,99.589h19.975c1.998,0,2.996,0.999,2.996,2.996v17.978
	c0,0.999-0.999,2.996-2.996,2.996h-19.975c-0.999,0-1.998-1.998-1.998-2.996v-17.978C248.661,100.587,249.66,99.589,250.659,99.589z
	"/>
<path id="path55" fill="#A8D1B1" d="M279.623,99.589h19.975c1.997,0,2.996,0.999,2.996,2.996v17.978
	c0,0.999-0.999,2.996-2.996,2.996h-19.975c-0.999,0-1.998-1.998-1.998-2.996v-17.978C277.625,100.587,278.624,99.589,279.623,99.589
	z"/>
<path id="path57" fill="#EDC07D" d="M308.723,98.295h19.975c1.998,0,2.997,0.999,2.997,2.996v17.978
	c0,0.999-0.999,2.996-2.997,2.996h-19.975c-0.999,0-1.997-1.998-1.997-2.996v-17.978C306.726,99.293,307.724,98.295,308.723,98.295z
	"/>
<path id="path59" fill="#97C5D5" d="M339.548,99.589h19.976c1.996,0,2.995,0.999,2.995,2.996v17.978
	c0,0.999-0.999,2.996-2.995,2.996h-19.976c-0.999,0-1.998-1.998-1.998-2.996v-17.978C337.55,100.587,338.549,99.589,339.548,99.589z
	"/>
<path id="path61" fill="#97C5D5" d="M369.51,99.589h18.978c1.997,0,2.996,0.999,2.996,2.996v17.978c0,0.999-0.999,2.996-2.996,2.996
	H369.51c-0.998,0-1.997-1.998-1.997-2.996v-17.978C367.513,100.587,368.512,99.589,369.51,99.589z"/>
<path id="path63" fill="#97C5D5" d="M398.474,99.589h19.977c1.997,0,2.996,0.999,2.996,2.996v17.978
	c0,0.999-0.999,2.996-2.996,2.996h-19.977c-0.999,0-1.997-1.998-1.997-2.996v-17.978C396.477,100.587,397.475,99.589,398.474,99.589
	z"/>
<path id="path65" fill="#F1EFBE" d="M80.871,125.556h18.977c0.999,0,2.996,0.999,2.996,1.998v18.976
	c0,0.999-1.998,1.998-2.996,1.998H80.871c-1.998,0-2.996-0.999-2.996-1.998v-18.976C77.875,126.555,78.874,125.556,80.871,125.556z"
	/>
<path id="path67" fill="#F1EFBE" d="M109.835,125.556h19.975c0.999,0,2.996,0.999,2.996,1.998v18.976
	c0,0.999-1.998,1.998-2.996,1.998h-19.975c-1.998,0-2.996-0.999-2.996-1.998v-18.976
	C106.839,126.555,107.837,125.556,109.835,125.556z"/>
<path id="path69" fill="#F1EFBE" d="M139.797,125.556h19.975c1.998,0,2.996,0.999,2.996,1.998v18.976
	c0,0.999-0.999,1.998-2.996,1.998h-19.975c-1.998,0-2.996-0.999-2.996-1.998v-18.976C136.801,126.555,137.8,125.556,139.797,125.556
	z"/>
<path id="path71" fill="#F1EFBE" d="M169.76,125.556h18.977c1.998,0,2.996,0.999,2.996,1.998v18.976
	c0,0.999-0.999,1.998-2.996,1.998H169.76c-1.997,0-2.996-0.999-2.996-1.998v-18.976C166.764,126.555,167.763,125.556,169.76,125.556
	z"/>
<path id="path73" fill="#97C5D5" d="M198.724,125.556h19.975c1.998,0,2.996,0.999,2.996,1.998v18.976
	c0,0.999-0.999,1.998-2.996,1.998h-19.975c-1.998,0-2.996-0.999-2.996-1.998v-18.976
	C195.728,126.555,196.726,125.556,198.724,125.556z"/>
<path id="path75" fill="#A97CA9" d="M228.686,125.556h19.975c1.998,0,2.997,0.999,2.997,1.998v18.976
	c0,0.999-0.999,1.998-2.997,1.998h-19.975c-0.999,0-2.996-0.999-2.996-1.998v-18.976
	C225.69,126.555,227.688,125.556,228.686,125.556z"/>
<path id="path77" fill="#A8D1B1" d="M258.649,125.556h18.976c1.998,0,2.996,0.999,2.996,1.998v18.976
	c0,0.999-0.999,1.998-2.996,1.998h-18.976c-0.999,0-2.997-0.999-2.997-1.998v-18.976
	C255.652,126.555,257.65,125.556,258.649,125.556z"/>
<path id="path79" fill="#A8D1B1" d="M287.612,125.556h19.976c1.997,0,2.996,0.999,2.996,1.998v18.976
	c0,0.999-0.999,1.998-2.996,1.998h-19.976c-0.999,0-2.996-0.999-2.996-1.998v-18.976
	C284.616,126.555,286.613,125.556,287.612,125.556z"/>
<path id="path81" fill="#A8D1B1" d="M317.575,125.556h19.975c1.998,0,2.996,0.999,2.996,1.998v18.976
	c0,0.999-0.998,1.998-2.996,1.998h-19.975c-0.999,0-2.996-0.999-2.996-1.998v-18.976
	C314.579,126.555,316.576,125.556,317.575,125.556z"/>
<path id="path83" fill="#A97CA9" d="M347.537,125.556h19.976c1.997,0,2.996,0.999,2.996,1.998v18.976
	c0,0.999-0.999,1.998-2.996,1.998h-19.976c-0.998,0-2.996-0.999-2.996-1.998v-18.976
	C344.541,126.555,346.539,125.556,347.537,125.556z"/>
<path id="path85" fill="#97C5D5" d="M376.501,125.556h19.976c1.997,0,2.996,0.999,2.996,1.998v18.976
	c0,0.999-0.999,1.998-2.996,1.998h-19.976c-0.998,0-2.996-0.999-2.996-1.998v-18.976
	C373.505,126.555,375.503,125.556,376.501,125.556z"/>
<path id="path87" fill="#97C5D5" d="M90.859,150.525h20.974c0.999,0,1.998,1.998,1.998,2.997V170.5c0,1.998-0.999,2.996-1.998,2.996
	H90.859c-0.999,0-1.998-0.998-1.998-2.996v-16.979C88.861,152.522,89.86,150.525,90.859,150.525z"/>
<path id="path89" fill="#97C5D5" d="M120.821,150.525h20.974c0.999,0,1.998,1.998,1.998,2.997V170.5
	c0,1.998-0.999,2.996-1.998,2.996h-20.974c-0.999,0-1.998-0.998-1.998-2.996v-16.979
	C118.824,152.522,119.822,150.525,120.821,150.525z"/>
<path id="path91" fill="#97C5D5" d="M150.784,150.525h20.974c0.999,0,1.998,1.998,1.998,2.997V170.5
	c0,1.998-0.999,2.996-1.998,2.996h-20.974c-0.999,0-1.998-0.998-1.998-2.996v-16.979
	C148.786,152.522,149.785,150.525,150.784,150.525z"/>
<path id="path93" fill="#C0CEF2" d="M210.709,150.525h19.975c0.999,0,1.998,1.998,1.998,2.997V170.5
	c0,1.998-0.999,2.996-1.998,2.996h-19.975c-1.998,0-2.997-0.998-2.997-2.996v-16.979
	C207.712,152.522,208.711,150.525,210.709,150.525z"/>
<path id="path95" fill="#B4BEC1" d="M240.671,150.525h19.975c0.999,0,1.997,1.998,1.997,2.997V170.5
	c0,1.998-0.999,2.996-1.997,2.996h-19.975c-1.998,0-2.997-0.998-2.997-2.996v-16.979
	C237.675,152.522,238.674,150.525,240.671,150.525z"/>
<path id="path97" fill="#8A9193" d="M270.634,150.525h18.978c0.998,0,1.997,1.998,1.997,2.997V170.5
	c0,1.998-0.999,2.996-1.997,2.996h-18.978c-1.998,0-2.996-0.998-2.996-2.996v-16.979
	C267.638,152.522,268.636,150.525,270.634,150.525z"/>
<path id="path99" fill="#F1EFBE" d="M299.598,150.525h19.976c0.999,0,1.998,1.998,1.998,2.997V170.5
	c0,1.998-0.999,2.996-1.998,2.996h-19.976c-1.998,0-2.996-0.998-2.996-2.996v-16.979C296.602,152.522,297.6,150.525,299.598,150.525
	z"/>
<path id="path101" fill="#F1EFBE" d="M329.56,150.525h19.977c0.999,0,1.997,1.998,1.997,2.997V170.5
	c0,1.998-0.998,2.996-1.997,2.996H329.56c-1.997,0-2.995-0.998-2.995-2.996v-16.979C326.563,152.522,327.563,150.525,329.56,150.525
	z"/>
<path id="path103" fill="#97C5D5" d="M359.522,150.525h18.977c0.998,0,1.997,1.998,1.997,2.997V170.5
	c0,1.998-0.999,2.996-1.997,2.996h-18.977c-1.997,0-2.996-0.998-2.996-2.996v-16.979
	C356.526,152.522,357.525,150.525,359.522,150.525z"/>
<path id="path105" fill="#97C5D5" d="M24.941,33.671h19.975c0.999,0,2.997,0.999,2.997,2.996v17.978
	c0,0.999-1.998,2.996-2.997,2.996H24.941c-1.998,0-2.997-1.998-2.997-2.996V36.667C21.945,34.67,22.944,33.671,24.941,33.671z"/>
<path id="path107" fill="#97C5D5" d="M83.868,33.671h19.975c1.998,0,2.997,0.999,2.997,2.996v17.978
	c0,0.999-0.999,2.996-2.997,2.996H83.868c-0.999,0-1.998-1.998-1.998-2.996V36.667C81.87,34.67,82.869,33.671,83.868,33.671z"/>
<path id="path109" fill="#97C5D5" d="M113.83,33.671h19.975c1.998,0,2.996,0.999,2.996,2.996v17.978
	c0,0.999-0.999,2.996-2.996,2.996H113.83c-1.998,0-2.996-1.998-2.996-2.996V36.667C110.834,34.67,111.833,33.671,113.83,33.671z"/>
<path id="path111" fill="#97C5D5" d="M143.792,33.671h19.975c1.998,0,2.996,0.999,2.996,2.996v17.978
	c0,0.999-0.999,2.996-2.996,2.996h-19.975c-0.999,0-2.996-1.998-2.996-2.996V36.667C140.796,34.67,142.794,33.671,143.792,33.671z"
	/>
<path id="path113" fill="#97C5D5" d="M173.755,33.671h18.977c1.997,0,2.996,0.999,2.996,2.996v17.978
	c0,0.999-0.999,2.996-2.996,2.996h-18.977c-0.999,0-2.996-1.998-2.996-2.996V36.667C170.759,34.67,172.756,33.671,173.755,33.671z"
	/>
<path id="path115" fill="#97C5D5" d="M217.7,32.672h19.975c0.999,0,1.998,1.998,1.998,2.997v17.978c0,1.997-0.999,2.996-1.998,2.996
	H217.7c-1.998,0-2.997-0.999-2.997-2.996V35.669C214.704,34.67,215.703,32.672,217.7,32.672z"/>
<path id="path117" fill="#97C5D5" d="M247.663,32.672h19.975c0.999,0,1.997,1.998,1.997,2.997v17.978
	c0,1.997-0.999,2.996-1.997,2.996h-19.975c-1.998,0-2.997-0.999-2.997-2.996V35.669C244.666,34.67,245.665,32.672,247.663,32.672z"
	/>
<path id="path119" fill="#97C5D5" d="M276.626,32.672h19.975c0.998,0,1.997,1.998,1.997,2.997v17.978
	c0,1.997-0.999,2.996-1.997,2.996h-19.975c-0.999,0-1.998-0.999-1.998-2.996V35.669C274.629,34.67,275.627,32.672,276.626,32.672z"
	/>
<path id="path121" fill="#97C5D5" d="M306.589,32.672h19.976c0.998,0,1.997,1.998,1.997,2.997v17.978
	c0,1.997-0.999,2.996-1.997,2.996h-19.976c-1.998,0-2.996-0.999-2.996-2.996V35.669C303.593,34.67,304.591,32.672,306.589,32.672z"
	/>
<path id="path123" fill="#97C5D5" d="M350.534,32.672h19.975c0.999,0,1.997,1.998,1.997,2.997v17.978
	c0,1.997-0.998,2.996-1.997,2.996h-19.975c-1.998,0-2.997-0.999-2.997-2.996V35.669C347.537,34.67,348.536,32.672,350.534,32.672z"
	/>
<path id="path125" fill="#97C5D5" d="M379.497,32.672h19.976c0.999,0,1.997,1.998,1.997,2.997v17.978
	c0,1.997-0.998,2.996-1.997,2.996h-19.976c-1.997,0-2.996-0.999-2.996-2.996V35.669C376.501,34.67,377.5,32.672,379.497,32.672z"/>
<path id="path127" fill="#97C5D5" d="M409.46,32.672h19.975c0.999,0,1.998,1.998,1.998,2.997v17.978
	c0,1.997-0.999,2.996-1.998,2.996H409.46c-1.997,0-2.996-0.999-2.996-2.996V35.669C406.464,34.67,407.463,32.672,409.46,32.672z"/>
<path id="path129" fill="#97C5D5" d="M439.423,32.672h19.976c0.999,0,1.996,1.998,1.996,2.997v17.978
	c0,1.997-0.997,2.996-1.996,2.996h-19.976c-1.998,0-2.997-0.999-2.997-2.996V35.669C436.426,34.67,437.425,32.672,439.423,32.672z"
	/>
<path id="path131" fill="#C0CEF2" d="M498.349,74.62h19.977c0.998,0,1.997,0.999,1.997,1.998v17.977
	c0,0.999-0.999,1.998-1.997,1.998h-19.977c-1.997,0-2.995-0.999-2.995-1.998V76.618C495.354,75.619,496.352,74.62,498.349,74.62z"/>
<path id="path133" fill="#A97CA9" d="M528.313,74.62h19.975c0.999,0,1.998,0.999,1.998,1.998v17.977
	c0,0.999-0.999,1.998-1.998,1.998h-19.975c-1.998,0-2.996-0.999-2.996-1.998V76.618C525.315,75.619,526.313,74.62,528.313,74.62z"/>
<path id="path135" fill="#EDC07D" d="M558.273,74.62h18.977c0.999,0,1.997,0.999,1.997,1.998v17.977
	c0,0.999-0.998,1.998-1.997,1.998h-18.977c-1.997,0-2.996-0.999-2.996-1.998V76.618C555.277,75.619,556.276,74.62,558.273,74.62z"/>
<path id="path137" fill="#97C5D5" d="M496.352,32.672h19.976c1.998,0,2.996,1.998,2.996,2.997v17.978
	c0,1.997-0.998,2.996-2.996,2.996h-19.976c-0.999,0-2.995-0.999-2.995-2.996V35.669C493.355,34.67,495.354,32.672,496.352,32.672z"
	/>
<path id="path139" fill="#97C5D5" d="M526.313,32.672h19.977c1.997,0,2.996,1.998,2.996,2.997v17.978
	c0,1.997-0.999,2.996-2.996,2.996h-19.977c-0.997,0-2.995-0.999-2.995-2.996V35.669C523.317,34.67,525.315,32.672,526.313,32.672z"
	/>
<path id="path141" fill="#97C5D5" d="M556.276,32.672h18.977c1.997,0,2.996,1.998,2.996,2.997v17.978
	c0,1.997-0.999,2.996-2.996,2.996h-18.977c-0.999,0-2.996-0.999-2.996-2.996V35.669C553.28,34.67,555.277,32.672,556.276,32.672z"/>
<path id="path143" fill="#8A9193" d="M498.349,98.59h19.977c0.998,0,1.997,1.998,1.997,2.997v17.977
	c0,1.998-0.999,2.997-1.997,2.997h-19.977c-1.997,0-2.995-0.999-2.995-2.997v-17.977C495.354,100.587,496.352,98.59,498.349,98.59z"
	/>
<path id="path145" fill="#A97CA9" d="M528.313,98.59h19.975c0.999,0,1.998,1.998,1.998,2.997v17.977
	c0,1.998-0.999,2.997-1.998,2.997h-19.975c-1.998,0-2.996-0.999-2.996-2.997v-17.977C525.315,100.587,526.313,98.59,528.313,98.59z"
	/>
<path id="path147" fill="#EDC07D" d="M558.273,98.59h18.977c0.999,0,1.997,1.998,1.997,2.997v17.977
	c0,1.998-0.998,2.997-1.997,2.997h-18.977c-1.997,0-2.996-0.999-2.996-2.997v-17.977C555.277,100.587,556.276,98.59,558.273,98.59z"
	/>
<path id="path149" fill="#A8D1B1" d="M498.349,175.494h19.977c0.998,0,1.997,0.998,1.997,1.997v18.976c0,1-0.999,1.998-1.997,1.998
	h-19.977c-1.997,0-2.995-0.998-2.995-1.998v-18.976C495.354,176.492,496.352,175.494,498.349,175.494z"/>
<path id="path151" fill="#A8D1B1" d="M528.313,175.494h19.975c0.999,0,1.998,0.998,1.998,1.997v18.976c0,1-0.999,1.998-1.998,1.998
	h-19.975c-1.998,0-2.996-0.998-2.996-1.998v-18.976C525.315,176.492,526.313,175.494,528.313,175.494z"/>
<path id="path153" fill="#A8D1B1" d="M558.273,175.494h18.977c0.999,0,1.997,0.998,1.997,1.997v18.976c0,1-0.998,1.998-1.997,1.998
	h-18.977c-1.997,0-2.996-0.998-2.996-1.998v-18.976C555.277,176.492,556.276,175.494,558.273,175.494z"/>
<path id="path155" fill="#A8D1B1" d="M528.313,150.525h19.975c0.999,0,1.998,0.999,1.998,2.997V170.5
	c0,0.998-0.999,2.996-1.998,2.996h-19.975c-1.998,0-2.996-1.998-2.996-2.996v-16.979
	C525.315,151.524,526.313,150.525,528.313,150.525z"/>
<path id="path185" fill="#789EA8" d="M139.797,175.494h-10.986c-1.997,0-2.996,0.998-2.996,2.996v17.977
	c0,1.998,0.999,2.997,2.996,2.997h10.986h167.791h17.979c0,0,0.998-0.999,0.998-2.997V178.49c0-1.998-0.998-2.996-0.998-2.996
	h-17.979H139.797z"/>
<path id="path187" fill="#97C5D5" d="M368.512,175.494h18.977c0.999,0,1.998,0.998,1.998,2.996v17.977
	c0,1.998-0.999,2.997-1.998,2.997h-18.977c-1.998,0-2.997-0.999-2.997-2.997V178.49
	C365.515,176.492,366.514,175.494,368.512,175.494z"/>
<path id="path189" fill="#97C5D5" d="M397.475,175.494h19.977c0.999,0,1.997,0.998,1.997,2.996v17.977
	c0,1.998-0.998,2.997-1.997,2.997h-19.977c-1.997,0-2.996-0.999-2.996-2.997V178.49
	C394.479,176.492,395.478,175.494,397.475,175.494z"/>
<path id="path195" fill="#F7D7D7" d="M179.748,150.525h20.974c0.999,0,1.998,1.998,1.998,2.997V170.5
	c0,1.998-0.999,2.996-1.998,2.996h-20.974c0,0-0.999-0.998-0.999-2.996v-16.979C178.749,152.522,179.748,150.525,179.748,150.525z"
	/>
<path id="path197" fill="#C9F7D1" d="M24.941,123.559c-1.998,0-2.997-1.998-2.997-2.996v-17.978c0-1.998,0.999-2.996,2.997-2.996
	h37.952c1.998,0,2.997,0.999,2.997,2.996v17.978c0,0.999-0.999,2.996-2.997,2.996H24.941z"/>
<path id="path199" fill="#B6F0FF" d="M24.941,148.527c-0.999,0-2.997-0.999-2.997-1.998v-18.976c0-0.999,1.998-1.998,2.997-1.998
	h44.943c1.998,0,3.995,0.999,3.995,1.998v18.976c0,0.999-1.998,1.998-3.995,1.998H24.941z"/>
<g id="g201" transform="matrix(0.774557,0,0,0.77345,-210.373,-10.3173)">
	<text id="text203" transform="matrix(1.2929 0 0 1.2929 383.056 152.654)" fill="#2B2828" font-family="'ArialMT'" font-size="9">Q</text>
</g>
<g id="g205" transform="matrix(0.774557,0,0,0.77345,-182.661,-10.3173)">
	<text id="text207" transform="matrix(1.2929 0 0 1.2929 383.0111 152.654)" fill="#2B2828" font-family="'ArialMT'" font-size="9">W</text>
</g>
<g id="g209" transform="matrix(0.774557,0,0,0.77345,-150,-10.3173)">
	<text id="text211" transform="matrix(1.2929 0 0 1.2929 382.9583 152.654)" fill="#2B2828" font-family="'ArialMT'" font-size="9">E</text>
</g>
<g id="g213" transform="matrix(0.774557,0,0,0.77345,-121.298,-10.3173)">
	<text id="text215" transform="matrix(1.2929 0 0 1.2929 382.9118 152.654)" fill="#2B2828" font-family="'ArialMT'" font-size="9">R</text>
</g>
<g id="g217" transform="matrix(0.774557,0,0,0.77345,-90.6165,-10.3173)">
	<text id="text219" transform="matrix(1.2929 0 0 1.2929 382.8622 152.654)" fill="#2B2828" font-family="'ArialMT'" font-size="9">T</text>
</g>
<g id="g221" transform="matrix(0.774557,0,0,0.77345,-60.9247,-10.3173)">
	<text id="text223" transform="matrix(1.2929 0 0 1.2929 382.8145 152.654)" fill="#2B2828" font-family="'ArialMT'" font-size="9">Y</text>
</g>
<g id="g225" transform="matrix(0.774557,0,0,0.77345,-31.2329,-10.3173)">
	<text id="text227" transform="matrix(1.2929 0 0 1.2929 382.7667 152.654)" fill="#2B2828" font-family="'ArialMT'" font-size="9">U</text>
</g>
<g id="g229" transform="matrix(0.774557,0,0,0.77345,1.42831,-10.3173)">
	<text id="text231" transform="matrix(1.2929 0 0 1.2929 382.7142 152.654)" fill="#2B2828" font-family="'ArialMT'" font-size="9">I</text>
</g>
<g id="g233" transform="matrix(0.774557,0,0,0.77345,27.1613,-10.3173)">
	<text id="text235" transform="matrix(1.2929 0 0 1.2929 382.6719 152.654)" fill="#2B2828" font-family="'ArialMT'" font-size="9">O</text>
</g>
<g id="g237" transform="matrix(0.774557,0,0,0.77345,57.8426,-10.3173)">
	<text id="text239" transform="matrix(1.2929 0 0 1.2929 382.6219 152.654)" fill="#2B2828" font-family="'ArialMT'" font-size="9">P</text>
</g>
<g id="g241" transform="matrix(0.774557,0,0,0.77345,-202.456,15.3789)">
	
		<text id="text243" transform="matrix(1.2929 0 0 1.2929 383.0427 152.6118)" fill="#2B2828" font-family="'ArialMT'" font-size="9">A</text>
</g>
<g id="g245" transform="matrix(0.774557,0,0,0.77345,-171.774,15.3789)">
	
		<text id="text247" transform="matrix(1.2929 0 0 1.2929 382.9937 152.6119)" fill="#2B2828" font-family="'ArialMT'" font-size="9">S</text>
</g>
<g id="g249" transform="matrix(0.774557,0,0,0.77345,-143.072,15.3789)">
	
		<text id="text251" transform="matrix(1.2929 0 0 1.2929 382.9473 152.6119)" fill="#2B2828" font-family="'ArialMT'" font-size="9">D</text>
</g>
<g id="g253" transform="matrix(0.774557,0,0,0.77345,-112.39,15.3789)">
	
		<text id="text255" transform="matrix(1.2929 0 0 1.2929 382.8976 152.6119)" fill="#2B2828" font-family="'ArialMT'" font-size="9">F</text>
</g>
<g id="g257" transform="matrix(0.774557,0,0,0.77345,-83.6883,15.3789)">
	
		<text id="text259" transform="matrix(1.2929 0 0 1.2929 382.8516 152.6119)" fill="#2B2828" font-family="'ArialMT'" font-size="9">G</text>
</g>
<g id="g261" transform="matrix(0.774557,0,0,0.77345,-53.9965,15.3789)">
	
		<text id="text263" transform="matrix(1.2929 0 0 1.2929 382.8031 152.6119)" fill="#2B2828" font-family="'ArialMT'" font-size="9">H</text>
</g>
<g id="g265" transform="matrix(0.774557,0,0,0.77345,-22.3252,15.3789)">
	
		<text id="text267" transform="matrix(1.2929 0 0 1.2929 382.7522 152.6119)" fill="#2B2828" font-family="'ArialMT'" font-size="9">J</text>
</g>
<g id="g269" transform="matrix(0.774557,0,0,0.77345,5.38717,15.3789)">
	
		<text id="text271" transform="matrix(1.2929 0 0 1.2929 382.7081 152.6119)" fill="#2B2828" font-family="'ArialMT'" font-size="9">K</text>
</g>
<g id="g273" transform="matrix(0.774557,0,0,0.77345,36.0689,15.3789)">
	
		<text id="text275" transform="matrix(1.2929 0 0 1.2929 382.6576 152.6119)" fill="#2B2828" font-family="'ArialMT'" font-size="9">L</text>
</g>
<g id="g277" transform="matrix(0.774557,0,0,0.77345,-190.579,40.0868)">
	
		<text id="text279" transform="matrix(1.2929 0 0 1.2929 383.0238 152.5723)" fill="#2B2828" font-family="'ArialMT'" font-size="9">Z</text>
</g>
<g id="g281" transform="matrix(0.774557,0,0,0.77345,-160.887,40.0868)">
	
		<text id="text283" transform="matrix(1.2929 0 0 1.2929 382.9757 152.5723)" fill="#2B2828" font-family="'ArialMT'" font-size="9">X</text>
</g>
<g id="g285" transform="matrix(0.774557,0,0,0.77345,-131.195,40.0868)">
	
		<text id="text287" transform="matrix(1.2929 0 0 1.2929 382.9277 152.5723)" fill="#2B2828" font-family="'ArialMT'" font-size="9">C</text>
</g>
<g id="g289" transform="matrix(0.774557,0,0,0.77345,-101.504,40.0868)">
	
		<text id="text291" transform="matrix(1.2929 0 0 1.2929 382.8803 152.5723)" fill="#2B2828" font-family="'ArialMT'" font-size="9">V</text>
</g>
<g id="g293" transform="matrix(0.774557,0,0,0.77345,-71.8117,40.0868)">
	
		<text id="text295" transform="matrix(1.2929 0 0 1.2929 382.8319 152.5723)" fill="#2B2828" font-family="'ArialMT'" font-size="9">B</text>
</g>
<g id="g297" transform="matrix(0.774557,0,0,0.77345,-42.1195,40.0868)">
	
		<text id="text299" transform="matrix(1.2929 0 0 1.2929 382.7842 152.5723)" fill="#2B2828" font-family="'ArialMT'" font-size="9">N</text>
</g>
<g id="g301" transform="matrix(0.774557,0,0,0.77345,-13.4176,40.0868)">
	
		<text id="text303" transform="matrix(1.2929 0 0 1.2929 382.7379 152.5723)" fill="#2B2828" font-family="'ArialMT'" font-size="9">M</text>
</g>
<path id="path305" fill="none" d="M538.299,166.505v-9.987"/>
<path id="path309" fill="none" d="M538.299,181.486v10.986"/>
<path id="path313" fill="none" d="M562.269,186.481h9.987"/>
<path id="path317" fill="none" d="M513.33,186.481h-10.986"/>
<g id="g387" transform="matrix(0.774557,0,0,0.77345,239.952,-83.4525)">
	
		<text id="text389" transform="matrix(1.2929 0 0 1.2929 370.7086 164.4077)" fill="#2B2828" font-family="'ArialMT'" font-size="6.9523">Scroll</text>
</g>
<g id="g391" transform="matrix(0.774557,0,0,0.77345,239.952,-75.546)">
	
		<text id="text393" transform="matrix(1.2929 0 0 1.2929 370.7086 164.3947)" fill="#2B2828" font-family="'ArialMT'" font-size="6.9523">Lock</text>
</g>
<g id="g395" transform="matrix(0.774557,0,0,0.77345,209.271,-88.3941)">
	
		<text id="text397" transform="matrix(1.2929 0 0 1.2929 370.7595 164.4155)" fill="#2B2828" font-family="'ArialMT'" font-size="6">Print</text>
</g>
<g id="g399" transform="matrix(0.774557,0,0,0.77345,209.271,-80.4877)">
	
		<text id="text401" transform="matrix(1.2929 0 0 1.2929 370.7595 164.4026)" fill="#2B2828" font-family="'ArialMT'" font-size="6">Scrn</text>
</g>
<g id="g403" transform="matrix(0.774557,0,0,0.77345,209.271,-72.5812)">
	
		<text id="text405" transform="matrix(1.2929 0 0 1.2929 370.7595 164.3909)" fill="#2B2828" font-family="'ArialMT'" font-size="6">SysRq</text>
</g>
<path id="path407" fill="none" d="M493.357,48.653h25.967"/>
<g id="g409" transform="matrix(0.774557,0,0,0.77345,268.654,-87.4057)">
	
		<text id="text411" transform="matrix(1.2929 0 0 1.2929 370.6635 164.4141)" fill="#2B2828" font-family="'ArialMT'" font-size="6.9523">Pause</text>
</g>
<g id="g413" transform="matrix(0.774557,0,0,0.77345,269.644,-73.5692)">
	
		<text id="text415" transform="matrix(1.2929 0 0 1.2929 370.6612 164.3918)" fill="#2B2828" font-family="'ArialMT'" font-size="6.9523">Break</text>
</g>
<path id="path417" fill="none" d="M553.28,47.655h24.969"/>
<g id="g419" transform="matrix(0.774557,0,0,0.77345,-198.497,-78.5109)">
	
		<text id="text421" transform="matrix(1.2929 0 0 1.2929 371.4169 164.3998)" fill="#2B2828" font-family="'ArialMT'" font-size="10.0423">F1</text>
</g>
<g id="g423" transform="matrix(0.774557,0,0,0.77345,-169.794,-78.5109)">
	
		<text id="text425" transform="matrix(1.2929 0 0 1.2929 371.3711 164.3997)" fill="#2B2828" font-family="'ArialMT'" font-size="10.0423">F2</text>
</g>
<g id="g427" transform="matrix(0.774557,0,0,0.77345,-140.103,-78.5109)">
	
		<text id="text429" transform="matrix(1.2929 0 0 1.2929 371.323 164.3997)" fill="#2B2828" font-family="'ArialMT'" font-size="10.0423">F3</text>
</g>
<g id="g431" transform="matrix(0.774557,0,0,0.77345,-110.411,-78.5109)">
	
		<text id="text433" transform="matrix(1.2929 0 0 1.2929 371.275 164.3997)" fill="#2B2828" font-family="'ArialMT'" font-size="10.0423">F4</text>
</g>
<g id="g435" transform="matrix(0.774557,0,0,0.77345,-65.8731,-78.5109)">
	
		<text id="text437" transform="matrix(1.2929 0 0 1.2929 371.2027 164.3997)" fill="#2B2828" font-family="'ArialMT'" font-size="10.0423">F5</text>
</g>
<g id="g439" transform="matrix(0.774557,0,0,0.77345,-36.1812,-78.5109)">
	
		<text id="text441" transform="matrix(1.2929 0 0 1.2929 371.1548 164.3997)" fill="#2B2828" font-family="'ArialMT'" font-size="10.0423">F6</text>
</g>
<g id="g443" transform="matrix(0.774557,0,0,0.77345,-6.48941,-78.5109)">
	
		<text id="text445" transform="matrix(1.2929 0 0 1.2929 371.107 164.3997)" fill="#2B2828" font-family="'ArialMT'" font-size="10.0423">F7</text>
</g>
<g id="g447" transform="matrix(0.774557,0,0,0.77345,23.2024,-78.5109)">
	
		<text id="text449" transform="matrix(1.2929 0 0 1.2929 371.0598 164.3997)" fill="#2B2828" font-family="'ArialMT'" font-size="10.0423">F8</text>
</g>
<g id="g451" transform="matrix(0.774557,0,0,0.77345,66.7503,-78.5109)">
	
		<text id="text453" transform="matrix(1.2929 0 0 1.2929 370.9892 164.3997)" fill="#2B2828" font-family="'ArialMT'" font-size="10.0423">F9</text>
</g>
<g id="g455" transform="matrix(0.774557,0,0,0.77345,93.4728,-78.5109)">
	
		<text id="text457" transform="matrix(1.2929 0 0 1.2929 370.9452 164.3997)" fill="#2B2828" font-family="'ArialMT'" font-size="10.0423">F10</text>
</g>
<g id="g459" transform="matrix(0.774557,0,0,0.77345,124.154,-78.5109)">
	
		<text id="text461" transform="matrix(1.2929 0 0 1.2929 370.8954 164.3997)" fill="#2B2828" font-family="'ArialMT'" font-size="10.0423">F11</text>
</g>
<g id="g463" transform="matrix(0.774557,0,0,0.77345,152.856,-78.5109)">
	
		<text id="text465" transform="matrix(1.2929 0 0 1.2929 370.8502 164.3997)" fill="#2B2828" font-family="'ArialMT'" font-size="10.0423">F12</text>
</g>
<g id="g467" transform="matrix(0.774557,0,0,0.77345,-258.87,-79.4993)">
	
		<text id="text469" transform="matrix(1.2929 0 0 1.2929 371.5145 164.4012)" fill="#2B2828" font-family="'ArialMT'" font-size="6.9523">Esc</text>
</g>
<g id="g471" transform="matrix(0.774557,0,0,0.77345,240.942,-38.9784)">
	
		<text id="text473" transform="matrix(1.2929 0 0 1.2929 370.7076 164.337)" fill="#2B2828" font-family="'ArialMT'" font-size="6.9523">Home</text>
</g>
<g id="g475" transform="matrix(0.774557,0,0,0.77345,244.901,-13.2822)">
	
		<text id="text477" transform="matrix(1.2929 0 0 1.2929 370.7013 164.2948)" fill="#2B2828" font-family="'ArialMT'" font-size="6.9523">End</text>
</g>
<g id="g479" transform="matrix(0.774557,0,0,0.77345,271.624,-17.2354)">
	
		<text id="text481" transform="matrix(1.2929 0 0 1.2929 370.6592 164.3019)" fill="#2B2828" font-family="'ArialMT'" font-size="6.9523">Page</text>
</g>
<g id="g483" transform="matrix(0.774557,0,0,0.77345,271.624,-9.32892)">
	
		<text id="text485" transform="matrix(1.2929 0 0 1.2929 370.6592 164.2883)" fill="#2B2828" font-family="'ArialMT'" font-size="6.9523">Down</text>
</g>
<g id="g487" transform="matrix(0.774557,0,0,0.77345,272.613,-43.9201)">
	
		<text id="text489" transform="matrix(1.2929 0 0 1.2929 370.6558 164.3449)" fill="#2B2828" font-family="'ArialMT'" font-size="6.9523">Page</text>
</g>
<g id="g491" transform="matrix(0.774557,0,0,0.77345,272.613,-36.0132)">
	
		<text id="text493" transform="matrix(1.2929 0 0 1.2929 370.6558 164.3315)" fill="#2B2828" font-family="'ArialMT'" font-size="6.9523">Up</text>
</g>
<g id="g495" transform="matrix(0.774557,0,0,0.77345,212.24,-38.9784)">
	
		<text id="text497" transform="matrix(1.2929 0 0 1.2929 370.7541 164.337)" fill="#2B2828" font-family="'ArialMT'" font-size="6.9523">Insert</text>
</g>
<g id="g499" transform="matrix(0.774557,0,0,0.77345,211.25,-13.2822)">
	
		<text id="text501" transform="matrix(1.2929 0 0 1.2929 370.7563 164.2948)" fill="#2B2828" font-family="'ArialMT'" font-size="6.9523">Delete</text>
</g>
<g id="g507" transform="matrix(0.774557,0,0,0.77345,-233.137,-31.0719)">
	<text id="text509" transform="matrix(1.2929 0 0 1.2929 393.4209 164.324)" fill="#2B2828" font-family="'ArialMT'" font-size="9">1</text>
</g>
<g id="g511" transform="matrix(0.774557,0,0,0.77345,-204.435,-31.0719)">
	<text id="text513" transform="matrix(1.2929 0 0 1.2929 390.7923 164.324)" fill="#2B2828" font-family="'ArialMT'" font-size="9">2</text>
</g>
<g id="g515" transform="matrix(0.774557,0,0,0.77345,-174.743,-31.0719)">
	<text id="text517" transform="matrix(1.2929 0 0 1.2929 392.0359 164.324)" fill="#2B2828" font-family="'ArialMT'" font-size="9">3</text>
</g>
<g id="g519" transform="matrix(0.774557,0,0,0.77345,-145.051,-31.0719)">
	<text id="text521" transform="matrix(1.2929 0 0 1.2929 391.9879 164.324)" fill="#2B2828" font-family="'ArialMT'" font-size="9">4</text>
</g>
<g id="g523" transform="matrix(0.774557,0,0,0.77345,-114.37,-31.0719)">
	<text id="text525" transform="matrix(1.2929 0 0 1.2929 390.6472 164.324)" fill="#2B2828" font-family="'ArialMT'" font-size="9">5</text>
</g>
<g id="g527" transform="matrix(0.774557,0,0,0.77345,-84.6778,-31.0719)">
	<text id="text529" transform="matrix(1.2929 0 0 1.2929 390.5995 164.324)" fill="#2B2828" font-family="'ArialMT'" font-size="9">6</text>
</g>
<g id="g531" transform="matrix(0.774557,0,0,0.77345,-54.986,-31.0719)">
	<text id="text533" transform="matrix(1.2929 0 0 1.2929 390.5511 164.324)" fill="#2B2828" font-family="'ArialMT'" font-size="9">7</text>
</g>
<g id="g535" transform="matrix(0.774557,0,0,0.77345,-26.2841,-31.0719)">
	<text id="text537" transform="matrix(1.2929 0 0 1.2929 391.7958 164.324)" fill="#2B2828" font-family="'ArialMT'" font-size="9">8</text>
</g>
<g id="g539" transform="matrix(0.774557,0,0,0.77345,3.40774,-31.0719)">
	<text id="text541" transform="matrix(1.2929 0 0 1.2929 391.748 164.324)" fill="#2B2828" font-family="'ArialMT'" font-size="9">9</text>
</g>
<g id="g543" transform="matrix(0.774557,0,0,0.77345,34.0895,-31.0719)">
	<text id="text545" transform="matrix(1.2929 0 0 1.2929 390.4076 164.324)" fill="#2B2828" font-family="'ArialMT'" font-size="9">0</text>
</g>
<path id="path547" fill="none" d="M456.401,84.608h-10.986"/>
<path id="path551" fill="#97C5D5" d="M387.487,173.497c-0.999,0-1.997-0.998-1.997-2.996v-16.979c0-0.999,0.998-2.997,1.997-2.997
	h72.909c1.996,0,2.995,1.998,2.995,2.997v16.979c0,1.998-0.999,2.996-2.995,2.996H387.487z"/>
<path id="path559" fill="#97C5D5" d="M427.438,175.495h32.959c1.997,0,2.996,0.998,2.996,2.996v17.977
	c0,1.998-0.999,2.997-2.996,2.997h-32.959c-1.996,0-2.995-0.999-2.995-2.997v-17.977
	C424.441,176.493,425.44,175.495,427.438,175.495z"/>
<path id="path561" fill="#97C5D5" d="M24.941,173.497c-0.999,0-2.997-0.998-2.997-2.996c0-4.994,0-10.986,0-16.979
	c0-0.999,1.998-2.997,2.997-2.997c14.981,0,40.949,0,56.929,0c0.999,0,1.998,1.998,1.998,2.997c0,5.992,0,11.985,0,16.979
	c0,1.998-0.999,2.996-1.998,2.996C65.89,173.497,39.922,173.497,24.941,173.497z"/>
<path id="path563" fill="#97C5D5" d="M24.941,175.495h29.962c0.999,0,1.998,0.998,1.998,2.996v17.977
	c0,1.998-0.999,2.997-1.998,2.997H24.941c-1.998,0-2.997-0.999-2.997-2.997v-17.977C21.945,176.493,22.944,175.495,24.941,175.495z"
	/>
<path id="path565" fill="#97C5D5" d="M64.891,175.495h18.977c1.998,0,2.996,0.998,2.996,2.996v17.977c0,1-0.999,2.997-2.996,2.997
	H64.891c-0.999,0-2.996-1.997-2.996-2.997v-17.977C61.895,176.493,63.893,175.495,64.891,175.495z"/>
<path id="path567" fill="#97C5D5" d="M93.855,175.495h24.969c0.999,0,1.998,0.998,1.998,2.996v17.977c0,1-0.999,2.997-1.998,2.997
	H93.855c-0.999,0-1.998-1.997-1.998-2.997v-17.977C91.857,176.493,92.856,175.495,93.855,175.495z"/>
<g id="g569" transform="matrix(0.774557,0,0,0.77345,150.877,63.8059)">
	
		<text id="text571" transform="matrix(1.2929 0 0 1.2929 370.8533 164.1708)" fill="#2B2828" font-family="'ArialMT'" font-size="6.9523">Ctrl</text>
</g>
<g id="g573" transform="matrix(0.774557,0,0,0.77345,-252.932,63.8059)">
	
		<text id="text575" transform="matrix(1.2929 0 0 1.2929 371.5051 164.1708)" fill="#2B2828" font-family="'ArialMT'" font-size="6.9523">Ctrl</text>
</g>
<g id="g577" transform="matrix(0.774557,0,0,0.77345,-185.63,62.8175)">
	
		<text id="text579" transform="matrix(1.2929 0 0 1.2929 371.3963 165.4651)" fill="#2B2828" font-family="'ArialMT'" font-size="6.9523">Alt</text>
</g>
<g id="g581" transform="matrix(0.774557,0,0,0.77345,3.40774,-45.8965)">
	<text id="text583" transform="matrix(1.2929 0 0 1.2929 391.748 166.3459)" fill="#2B2828" font-family="'ArialMT'" font-size="9">(</text>
</g>
<g id="g585" transform="matrix(0.774557,0,0,0.77345,34.0895,-45.8965)">
	
		<text id="text587" transform="matrix(1.2929 0 0 1.2929 391.6987 166.3459)" fill="#2B2828" font-family="'ArialMT'" font-size="9">)</text>
</g>
<g id="g589" transform="matrix(0.774557,0,0,0.77345,-25.2942,-45.8965)">
	
		<text id="text591" transform="matrix(1.2929 0 0 1.2929 391.7944 167.6389)" fill="#2B2828" font-family="'ArialMT'" font-size="9">*</text>
</g>
<g id="g593" transform="matrix(0.774557,0,0,0.77345,-55.9759,-44.9081)">
	
		<text id="text595" transform="matrix(1.2929 0 0 1.2929 391.8442 164.3458)" fill="#2B2828" font-family="'ArialMT'" font-size="9">&amp;</text>
</g>
<g id="g597" transform="matrix(0.774557,0,0,0.77345,-84.6778,-44.9081)">
	
		<text id="text599" transform="matrix(1.2929 0 0 1.2929 391.8906 165.6389)" fill="#2B2828" font-family="'ArialMT'" font-size="9">^</text>
</g>
<g id="g601" transform="matrix(0.774557,0,0,0.77345,-115.36,-44.9081)">
	<text id="text603" transform="matrix(1.2929 0 0 1.2929 389.3577 164.346)" fill="#2B2828" font-family="'ArialMT'" font-size="9">%</text>
</g>
<g id="g605" transform="matrix(0.774557,0,0,0.77345,-145.051,-44.9081)">
	
		<text id="text607" transform="matrix(1.2929 0 0 1.2929 391.9879 164.3461)" fill="#2B2828" font-family="'ArialMT'" font-size="9">$</text>
</g>
<g id="g609" transform="matrix(0.774557,0,0,0.77345,-174.743,-44.9081)">
	
		<text id="text611" transform="matrix(1.2929 0 0 1.2929 392.0359 165.6404)" fill="#2B2828" font-family="'ArialMT'" font-size="9">#</text>
</g>
<g id="g613" transform="matrix(0.774557,0,0,0.77345,-205.425,-44.9081)">
	
		<text id="text615" transform="matrix(1.2929 0 0 1.2929 389.5028 164.3475)" fill="#2B2828" font-family="'ArialMT'" font-size="9">@</text>
</g>
<g id="g617" transform="matrix(0.774557,0,0,0.77345,-233.137,-44.9081)">
	
		<text id="text619" transform="matrix(1.2929 0 0 1.2929 394.7119 164.3476)" fill="#2B2828" font-family="'ArialMT'" font-size="9">!</text>
</g>
<g id="g621" transform="matrix(0.774557,0,0,0.77345,-242.045,38.11)">
	
		<text id="text623" transform="matrix(1.2929 0 0 1.2929 372.7781 164.2131)" fill="#2B2828" font-family="'ArialMT'" font-size="6.9523">Shift</text>
</g>
<path id="path625" fill="none" d="M31.933,155.521l-3.995,3.995h1.998v7.99h4.994v-7.99h1.998L31.933,155.521z"/>
<g id="g627" transform="matrix(0.774557,0,0,0.77345,130.092,38.11)">
	
		<text id="text629" transform="matrix(1.2929 0 0 1.2929 370.8872 164.2131)" fill="#2B2828" font-family="'ArialMT'" font-size="6.9523">Shift</text>
</g>
<path id="path631" fill="none" d="M394.479,155.521l-3.994,3.995h1.998v7.99h3.994v-7.99h1.997L394.479,155.521z"/>
<g id="g633" transform="matrix(0.774557,0,0,0.77345,-262.829,-30.0835)">
	
		<text id="text635" transform="matrix(1.2929 0 0 1.2929 390.8868 164.3232)" fill="#2B2828" font-family="'ArialMT'" font-size="9">`</text>
</g>
<g id="g637" transform="matrix(0.774557,0,0,0.77345,-263.819,-44.9081)">
	
		<text id="text639" transform="matrix(1.2929 0 0 1.2929 390.8884 164.3478)" fill="#2B2828" font-family="'ArialMT'" font-size="9">~</text>
</g>
<g id="g641" transform="matrix(0.774557,0,0,0.77345,-262.829,-18.2238)">
	
		<text id="text643" transform="matrix(1.2929 0 0 1.2929 390.8868 161.7194)" fill="#2B2828" font-family="'ArialMT'" font-size="6.9523">Tab</text>
</g>
<g id="g645" transform="matrix(0.774557,0,0,0.77345,-247.983,8.46086)">
	
		<text id="text647" transform="matrix(1.2929 0 0 1.2929 371.4972 164.261)" fill="#2B2828" font-family="'ArialMT'" font-size="6.9523">Caps</text>
</g>
<g id="g649" transform="matrix(0.774557,0,0,0.77345,-247.983,16.3673)">
	
		<text id="text651" transform="matrix(1.2929 0 0 1.2929 371.4972 164.2494)" fill="#2B2828" font-family="'ArialMT'" font-size="6.9523">Lock</text>
</g>
<g id="g653" transform="matrix(0.774557,0,0,0.77345,62.7914,-31.0719)">
	<text id="text655" transform="matrix(1.2929 0 0 1.2929 391.6524 164.326)" fill="#2B2828" font-family="'ArialMT'" font-size="9">-</text>
</g>
<g id="g657" transform="matrix(0.774557,0,0,0.77345,62.7914,-45.8965)">
	
		<text id="text659" transform="matrix(1.2929 0 0 1.2929 390.3613 163.0564)" fill="#2B2828" font-family="'ArialMT'" font-size="9">_</text>
</g>
<g id="g661" transform="matrix(0.774557,0,0,0.77345,92.4829,-31.0719)">
	<text id="text663" transform="matrix(1.2929 0 0 1.2929 390.3133 164.326)" fill="#2B2828" font-family="'ArialMT'" font-size="9">=</text>
</g>
<g id="g665" transform="matrix(0.774557,0,0,0.77345,92.4829,-45.8965)">
	
		<text id="text667" transform="matrix(1.2929 0 0 1.2929 391.6043 165.6422)" fill="#2B2828" font-family="'ArialMT'" font-size="9">+</text>
</g>
<g id="g677" transform="matrix(0.774557,0,0,0.77345,82.5861,-6.36408)">
	
		<text id="text679" transform="matrix(1.2929 0 0 1.2929 391.6199 162.9924)" fill="#2B2828" font-family="'ArialMT'" font-size="9.2698">[</text>
</g>
<g id="g681" transform="matrix(0.774557,0,0,0.77345,81.5962,-19.2122)">
	
		<text id="text683" transform="matrix(1.2929 0 0 1.2929 391.622 164.3067)" fill="#2B2828" font-family="'ArialMT'" font-size="9.2698">{</text>
</g>
<g id="g685" transform="matrix(0.774557,0,0,0.77345,111.288,-6.36408)">
	
		<text id="text687" transform="matrix(1.2929 0 0 1.2929 392.8646 162.9924)" fill="#2B2828" font-family="'ArialMT'" font-size="9.2698">]</text>
</g>
<g id="g689" transform="matrix(0.774557,0,0,0.77345,111.288,-19.2122)">
	
		<text id="text691" transform="matrix(1.2929 0 0 1.2929 392.8646 164.3067)" fill="#2B2828" font-family="'ArialMT'" font-size="9.2698">}</text>
</g>
<g id="g693" transform="matrix(0.774557,0,0,0.77345,59.8224,18.3438)">
	
		<text id="text695" transform="matrix(1.2929 0 0 1.2929 392.9488 164.2457)" fill="#2B2828" font-family="'ArialMT'" font-size="9.2698">;</text>
</g>
<g id="g697" transform="matrix(0.774557,0,0,0.77345,59.8224,5.49565)">
	
		<text id="text699" transform="matrix(1.2929 0 0 1.2929 392.9488 164.2665)" fill="#2B2828" font-family="'ArialMT'" font-size="9.2698">:</text>
</g>
<g id="g701" transform="matrix(0.774557,0,0,0.77345,89.5139,19.3322)">
	
		<text id="text703" transform="matrix(1.2929 0 0 1.2929 392.9008 164.2444)" fill="#2B2828" font-family="'ArialMT'" font-size="9.2698">&apos;</text>
</g>
<g id="g705" transform="matrix(0.774557,0,0,0.77345,88.524,6.48405)">
	
		<text id="text707" transform="matrix(1.2929 0 0 1.2929 392.9029 164.2653)" fill="#2B2828" font-family="'ArialMT'" font-size="9.2698">&quot;</text>
</g>
<g id="g709" transform="matrix(0.774557,0,0,0.77345,70.7091,45.0281)">
	
		<text id="text711" transform="matrix(1.2929 0 0 1.2929 390.3491 164.2046)" fill="#2B2828" font-family="'ArialMT'" font-size="9.2698">/</text>
</g>
<g id="g713" transform="matrix(0.774557,0,0,0.77345,70.7091,32.1803)">
	
		<text id="text715" transform="matrix(1.2929 0 0 1.2929 390.3491 164.2237)" fill="#2B2828" font-family="'ArialMT'" font-size="9.2698">?</text>
</g>
<g id="g717" transform="matrix(0.774557,0,0,0.77345,42.0072,45.0281)">
	
		<text id="text719" transform="matrix(1.2929 0 0 1.2929 395.5596 162.0582)" fill="#2B2828" font-family="'ArialMT'" font-size="9.2698">.</text>
</g>
<g id="g721" transform="matrix(0.774557,0,0,0.77345,41.0173,32.1803)">
	
		<text id="text723" transform="matrix(1.2929 0 0 1.2929 392.9784 162.9308)" fill="#2B2828" font-family="'ArialMT'" font-size="9.2698">&gt;</text>
</g>
<g id="g725" transform="matrix(0.774557,0,0,0.77345,11.3255,45.0281)">
	
		<text id="text727" transform="matrix(1.2929 0 0 1.2929 395.6089 161.6188)" fill="#2B2828" font-family="'ArialMT'" font-size="9.2698">,</text>
</g>
<g id="g729" transform="matrix(0.774557,0,0,0.77345,10.3359,32.1803)">
	
		<text id="text731" transform="matrix(1.2929 0 0 1.2929 393.0272 162.9308)" fill="#2B2828" font-family="'ArialMT'" font-size="9.2698">&lt;</text>
</g>
<path id="path865" fill="#97C5D5" d="M333.555,175.497h23.972c0.998,0,1.997,0.998,1.997,2.996v17.977c0,1-0.999,2.997-1.997,2.997
	h-23.972c-0.998,0-1.997-1.997-1.997-2.997v-17.977C331.558,176.495,332.557,175.497,333.555,175.497z"/>
<g id="g867" transform="matrix(0.774557,0,0,0.77345,49.697,62.8175)">
	
		<text id="text869" transform="matrix(1.2929 0 0 1.2929 371.0164 164.1745)" fill="#2B2828" font-family="'ArialMT'" font-size="6.9523">Alt</text>
</g>
<g id="g11615">
	<path fill="#2B2828" d="M-14-22.999"/>
	<path id="path10716" fill="#2B2828" stroke="#2B2828" d="M55.694,105.003l3.457-1.998v3.996L55.694,105.003z"/>
	<path id="path4208" fill="#2B2828" stroke="#2B2828" d="M58,105.003"/>
	<path id="path5410" fill="#2B2828" stroke="#2B2828" stroke-width="1.0003" d="M55,103.003v4"/>
</g>
<g id="g11619">
	<path fill="#2B2828" stroke="#2B2828" stroke-width="1.0003" d="M-19-21.999"/>
	<path id="path10719" fill="#2B2828" stroke="#2B2828" d="M62.306,114.003l-3.457,1.998v-3.996L62.306,114.003z"/>
	<path id="path4208-0" fill="#2B2828" stroke="#2B2828" d="M60,114.003"/>
	<path id="path5410-9" fill="#2B2828" stroke="#2B2828" stroke-width="1.0003" d="M63,112.003v4"/>
</g>
<path fill="#2B2828" stroke="#2B2828" stroke-width="1.0003" d="M-22-21.999"/>
<path id="path6545" fill="#2B2828" stroke="#2B2828" d="M428,133.003"/>
<path fill="#2B2828" stroke="#2B2828" d="M-22-21.999"/>
<path id="path11856" fill="#2B2828" stroke="#2B2828" d="M538,193.372l-2-3.46h4L538,193.372z"/>
<path id="path11623" fill="#2B2828" stroke="#2B2828" d="M538,191.063"/>
<path fill="#2B2828" stroke="#2B2828" d="M-22-21.999"/>
<path id="path11856_1_" fill="#2B2828" stroke="#2B2828" d="M500.693,188.003l3.46-2v4L500.693,188.003z"/>
<path id="path11623-1" fill="#2B2828" stroke="#2B2828" d="M503,188.003"/>
<path fill="#2B2828" stroke="#2B2828" d="M-22-21.999"/>
<path id="path11856_2_" fill="#2B2828" stroke="#2B2828" d="M575.308,188.003l-3.46,2v-4L575.308,188.003z"/>
<path id="path11623-1-7" fill="#2B2828" stroke="#2B2828" d="M573,188.003"/>
<path fill="#2B2828" stroke="#2B2828" d="M-22-21.999"/>
<path id="path11856_3_" fill="#2B2828" stroke="#2B2828" d="M538,155.695l2,3.46h-4L538,155.695z"/>
<path id="path11623-2" fill="#2B2828" stroke="#2B2828" d="M538,158.003"/>
<path fill="#2B2828" stroke="#2B2828" d="M-22-21.999"/>
<path fill="#2B2828" stroke="#2B2828" d="M-22-21.999"/>
<path fill="#2B2828" stroke="#2B2828" d="M-22-21.999"/>
<path fill="#2B2828" stroke="#2B2828" d="M-22-21.999"/>
<path fill="#2B2828" stroke="#2B2828" d="M-22-21.999"/>
<path id="path11623-1-0" fill="#2B2828" stroke="#2B2828" d="M412.518,85.69"/>
<path id="path11856_9_" fill="#2B2828" stroke="#2B2828" d="M258.693,142.003l3.46-2v4L258.693,142.003z"/>
<path id="path11623-2_1_" fill="#2B2828" stroke="#2B2828" d="M291,114.003"/>
<path id="path11856_10_" fill="#2B2828" stroke="#2B2828" d="M282,115.695l2,3.46h-4L282,115.695z"/>
<path id="path11856_11_" fill="#2B2828" stroke="#2B2828" d="M290,143.372l-2-3.46h4L290,143.372z"/>
<path id="path11856_12_" fill="#2B2828" stroke="#2B2828" d="M321.308,142.003l-3.46,2v-4L321.308,142.003z"/>
<path id="path561_1_" fill="#97C5D5" d="M404.102,148.694c-1,0-2.998-0.998-2.998-2.996c0-4.994,0-10.985,0-16.979
	c0-0.998,1.998-2.996,2.998-2.996c14.98,0,40.949,0,56.929,0c0.999,0,1.998,1.998,1.998,2.996c0,5.992,0,11.985,0,16.979
	c0,1.998-0.999,2.996-1.998,2.996C445.051,148.694,419.082,148.694,404.102,148.694z"/>
<path id="path555" fill="none" d="M444.416,107.58v10.986h-9.987"/>
<path id="path197_1_" fill="#97C5D5" d="M426.047,123.785c-1.782,0-2.674-1.998-2.674-2.996V102.81c0-1.998,0.892-2.996,2.674-2.996
	h33.85c1.782,0,2.674,0.999,2.674,2.996v17.979c0,0.998-0.892,2.996-2.674,2.996H426.047z"/>
<text transform="matrix(1 0 0 1 456.4659 109.518)" font-family="'MyriadPro-Regular'" font-size="9.27">|</text>
<text transform="matrix(1 0 0 1 455.8975 120.7421)" font-family="'MyriadPro-Regular'" font-size="9.27">\</text>
<text transform="matrix(1 0 0 1 250.7759 111.9838)"><tspan x="0" y="0" font-family="'ArialMT'" font-size="6">Page</tspan><tspan x="0" y="7.2" font-family="'ArialMT'" font-size="6">Up</tspan></text>
<text transform="matrix(1 0 0 1 309.5172 111.9838)"><tspan x="0" y="0" font-family="'ArialMT'" font-size="6">Page</tspan><tspan x="0" y="7.2" font-family="'ArialMT'" font-size="6">Down</tspan></text>
<g id="g471_1_" transform="matrix(0.774557,0,0,0.77345,240.942,-38.9784)">
	
		<text id="text473_1_" transform="matrix(1.2929 0 0 1.2929 -17.9015 235.448)" fill="#2B2828" font-family="'ArialMT'" font-size="7">Home</text>
</g>
<g id="g475_1_" transform="matrix(0.774557,0,0,0.77345,244.901,-13.2822)">
	
		<text id="text477_1_" transform="matrix(1.2929 0 0 1.2929 130.5641 204.376)" fill="#2B2828" font-family="'ArialMT'" font-size="6.9523">End</text>
</g>
<path id="path197_2_" fill="#B4BEC1" d="M410.318,98.285c-2.564,0-3.848-1.998-3.848-2.996V77.31c0-1.998,1.283-2.996,3.848-2.996
	h48.717c2.564,0,3.848,0.999,3.848,2.996v17.979c0,0.998-1.283,2.996-3.848,2.996H410.318z"/>
<text transform="matrix(1 0 0 1 424.7393 87.7358)" font-family="'ArialMT'" font-size="7">Backspace</text>
<line fill="none" x1="411.25" y1="139.251" x2="419" y2="139.251"/>
<line fill="none" x1="419" y1="139.251" x2="419" y2="137.001"/>
<g>
	<path id="path3528" fill="#2B2828" stroke="#2B2828" d="M417.089,139.606l3.46-2v4L417.089,139.606z"/>
	<line fill="none" stroke="#2B2828" x1="420.125" y1="139.626" x2="427.875" y2="139.626"/>
	<line fill="none" stroke="#2B2828" x1="427.875" y1="139.626" x2="427.875" y2="137.376"/>
</g>
<text transform="matrix(1 0 0 1 431.0001 140.2509)" font-family="'ArialMT'" font-size="6">Enter</text>
<text transform="matrix(1 0 0 1 27.8335 141.6674)" fill="#C92424" font-family="'ArialMT'" font-size="13">♥</text>
<text transform="matrix(1 0 0 1 60.792 141.6674)" fill="#C92424" font-family="'ArialMT'" font-size="13">♥</text>
<text transform="matrix(1 0 0 1 239.75 164.5009)"><tspan x="0" y="0" font-family="'ArialMT'" font-size="6.8">Back-</tspan><tspan x="0" y="6" font-family="'ArialMT'" font-size="6.8">space</tspan></text>
<text transform="matrix(1 0 0 1 210.5357 169.3403)" font-family="'ArialMT'" font-size="7">Insert</text>
<text transform="matrix(1 0 0 1 269.5714 170.1078)" font-family="'ArialMT'" font-size="6.8">Delete</text>
<text transform="matrix(1 0 0 1 128.7681 192.2333)" font-family="'ArialMT'" font-size="7">Enter</text>
<text transform="matrix(1 0 0 1 403.3575 190.662)" font-family="'ArialMT'" font-size="7">Fn</text>
<text transform="matrix(1 0 0 1 67.5538 190.662)" font-family="'ArialMT'" font-size="7">Win</text>
<text transform="matrix(1 0 0 1 372.0181 190.4472)" font-family="'ArialMT'" font-size="7">Win</text>
<text transform="matrix(1 0 0 1 297.482 170.0009)" font-family="'ArialMT'" font-size="7">Undo</text>
<text transform="matrix(1 0 0 1 328.1431 170.2153)" font-family="'ArialMT'" font-size="7">Redo</text>
<text transform="matrix(1 0 0 1 79 138.8344)"><tspan x="0" y="0" font-family="'ArialMT'" font-size="6">Select</tspan><tspan x="0" y="6" font-family="'ArialMT'" font-size="6">All</tspan></text>
<text transform="matrix(1 0 0 1 108.8335 144.2783)" font-family="'ArialMT'" font-size="6">Cut</text>
<text transform="matrix(1 0 0 1 138.1665 144.2787)" font-family="'ArialMT'" font-size="6">Copy</text>
<text transform="matrix(1 0 0 1 167.5 144.2783)" font-family="'ArialMT'" font-size="6">Paste</text>
<text transform="matrix(1 0 0 1 160.1665 120.0009)" font-family="'ArialMT'" font-size="6">Esc</text>
<text transform="matrix(1 0 0 1 190.1665 115.8344)"><tspan x="0" y="0" font-family="'ArialMT'" font-size="6">Close</tspan><tspan x="0" y="5" font-family="'ArialMT'" font-size="6">Tab</tspan></text>
<text transform="matrix(1 0 0 1 179.8335 165.8344)"><tspan x="0" y="0" font-family="'ArialMT'" font-size="5.5">Close</tspan><tspan x="0" y="5" font-family="'ArialMT'" font-size="5.5">Window</tspan></text>
<text transform="matrix(1 0 0 1 23.8335 116.0009)"><tspan x="0" y="0" font-family="'ArialMT'" font-size="5.5">Prev</tspan><tspan x="0" y="5" font-family="'ArialMT'" font-size="5.5">Tab</tspan></text>
<text transform="matrix(1 0 0 1 71.6665 115.6674)"><tspan x="0" y="0" font-family="'ArialMT'" font-size="5.5">Next</tspan><tspan x="0" y="5" font-family="'ArialMT'" font-size="5.5">Tab</tspan></text>
</svg>
